<?xml version="1.0" standalone="no"?>
<!DOCTYPE svg PUBLIC "-//W3C//DTD SVG 20010904//EN"
 "http://www.w3.org/TR/2001/REC-SVG-20010904/DTD/svg10.dtd">
<svg version="1.0" xmlns="http://www.w3.org/2000/svg"
 width="3000.000000pt" height="3000.000000pt" viewBox="0 0 3000.000000 3000.000000"
 preserveAspectRatio="xMidYMid meet">
<metadata>
Created by potrace 1.11, written by Peter Selinger 2001-2013
</metadata>
<g transform="translate(0.000000,3000.000000) scale(0.100000,-0.100000)"
fill="#000000" stroke="none">
<path d="M0 15000 l0 -15000 15000 0 15000 0 0 15000 0 15000 -15000 0 -15000
0 0 -15000z m16360 12540 c0 -5 6 -10 13 -10 6 0 28 -18 47 -40 19 -22 43 -40
53 -40 9 0 17 -4 17 -10 0 -5 7 -10 15 -10 8 0 15 -7 15 -15 0 -9 10 -15 26
-15 14 0 23 -4 19 -10 -3 -5 3 -10 14 -10 12 0 21 -5 21 -11 0 -5 5 -7 10 -4
6 3 10 1 10 -4 0 -6 7 -11 15 -11 8 0 15 -4 15 -10 0 -5 11 -12 25 -16 14 -3
25 -10 25 -15 0 -5 11 -9 25 -9 14 0 25 -5 25 -11 0 -5 5 -7 10 -4 6 3 10 1
10 -4 0 -6 11 -11 25 -11 14 0 25 -4 25 -9 0 -5 14 -12 30 -16 17 -4 30 -11
30 -16 0 -5 11 -9 25 -9 14 0 25 -4 25 -9 0 -5 18 -11 40 -15 23 -4 38 -11 35
-16 -3 -6 3 -10 14 -10 11 0 26 -7 35 -15 8 -8 24 -15 35 -15 12 0 21 -4 21
-10 0 -5 11 -10 24 -10 14 0 31 -7 40 -15 8 -8 26 -15 40 -15 14 0 26 -4 26
-10 0 -5 11 -10 24 -10 14 0 31 -7 40 -15 8 -8 24 -15 35 -15 12 0 21 -4 21
-10 0 -5 14 -10 30 -10 20 0 30 -5 30 -15 0 -9 9 -15 25 -15 14 0 25 -5 25
-11 0 -5 5 -7 10 -4 6 3 10 1 10 -4 0 -6 11 -11 25 -11 14 0 25 -4 25 -9 0 -5
11 -12 25 -15 14 -4 25 -11 25 -16 0 -6 14 -10 31 -10 16 0 28 -4 25 -8 -3 -4
15 -17 40 -28 24 -10 44 -25 44 -31 0 -7 9 -13 20 -13 11 0 20 -4 20 -10 0 -5
7 -10 15 -10 8 0 15 -6 15 -13 0 -7 10 -14 22 -14 13 -1 24 -7 26 -13 2 -5 10
-10 18 -10 8 0 14 -7 14 -15 0 -8 5 -15 11 -15 11 0 39 -25 39 -34 0 -4 15
-21 34 -39 18 -18 36 -43 40 -55 4 -12 12 -22 17 -22 5 0 9 -11 9 -24 0 -13 7
-26 15 -30 12 -4 15 -25 15 -95 0 -66 -4 -93 -15 -105 -8 -8 -15 -23 -15 -34
0 -11 -7 -22 -15 -26 -8 -3 -15 -15 -15 -26 0 -11 -3 -20 -7 -20 -5 0 -17 -18
-27 -40 -11 -22 -23 -40 -28 -40 -4 0 -8 -7 -8 -15 0 -8 -5 -15 -11 -15 -14 0
-39 -25 -39 -39 0 -6 -5 -11 -11 -11 -14 0 -39 -25 -39 -39 0 -6 -7 -11 -15
-11 -9 0 -15 -9 -15 -25 0 -16 6 -25 15 -25 9 0 15 -9 15 -25 0 -14 4 -25 9
-25 5 0 12 -13 16 -30 4 -16 11 -30 16 -30 5 0 9 -15 9 -34 0 -19 4 -36 10
-38 5 -1 10 -20 12 -41 1 -21 5 -40 9 -43 4 -2 5 -13 2 -24 -3 -11 0 -20 6
-20 13 0 15 -121 2 -136 -10 -10 -20 -93 -21 -164 0 -33 -3 -41 -10 -30 -7 11
-10 -2 -10 -45 0 -37 -6 -68 -15 -79 -21 -28 -21 -169 0 -190 8 -8 15 -24 15
-35 0 -12 4 -21 9 -21 5 0 11 -18 15 -40 3 -22 11 -40 16 -40 6 0 10 -11 10
-25 0 -14 5 -25 10 -25 6 0 10 -10 10 -23 0 -13 7 -32 15 -43 23 -30 20 -189
-4 -236 -10 -21 -21 -34 -25 -31 -3 4 -6 -1 -6 -10 0 -15 -12 -17 -80 -17 -47
0 -80 -4 -80 -10 0 -5 -11 -10 -24 -10 -14 0 -31 -7 -40 -15 -8 -8 -19 -15
-25 -15 -6 0 -11 -4 -11 -10 0 -5 -18 -28 -40 -50 l-40 -40 -2 -117 c-1 -103
-2 -110 -8 -53 -6 55 -7 47 -8 -58 -2 -117 -3 -124 -27 -146 -14 -13 -25 -28
-25 -35 0 -6 -7 -11 -15 -11 -27 0 -16 -18 15 -25 17 -4 30 -11 30 -16 0 -5
30 -9 66 -9 36 0 63 -4 60 -8 -7 -11 174 -22 359 -22 215 0 485 12 479 22 -3
4 44 8 105 8 65 0 111 4 113 10 2 6 47 13 101 17 58 3 93 9 85 14 -7 5 27 9
80 9 73 0 94 3 98 15 5 11 22 15 69 15 35 0 65 4 67 10 2 5 38 13 80 16 43 4
75 11 72 15 -3 5 22 9 55 9 34 0 61 4 61 9 0 5 32 12 70 16 39 4 70 11 70 16
0 5 25 9 55 9 30 0 55 4 55 10 0 5 27 12 61 16 33 4 55 10 49 14 -12 7 45 20
93 20 15 0 27 5 27 10 0 6 23 10 50 10 28 0 50 4 50 9 0 5 25 13 55 16 30 4
52 11 49 16 -3 5 17 9 45 9 28 0 51 5 53 11 2 6 28 14 57 17 34 3 48 8 39 13
-8 6 5 9 35 9 26 0 47 4 47 9 0 5 25 13 55 16 30 4 52 11 49 16 -3 5 13 12 36
15 22 4 40 10 40 15 0 5 18 9 40 9 22 0 40 4 40 10 0 5 18 13 40 16 22 4 40
10 40 15 0 5 11 9 25 9 14 0 25 4 25 9 0 5 18 11 40 15 22 3 40 11 40 16 0 6
20 10 45 10 31 0 47 5 51 15 4 10 20 15 45 15 21 0 39 4 39 10 0 5 27 12 60
16 33 4 60 11 60 15 0 5 24 9 54 9 30 0 56 4 58 10 2 5 40 12 86 16 45 4 82
11 82 15 0 5 31 9 69 9 38 0 71 4 73 10 2 5 40 12 86 16 46 4 78 10 71 15 -6
4 22 10 65 14 42 4 76 11 76 16 0 5 29 9 64 9 35 0 66 4 68 10 2 5 31 13 65
16 34 4 60 11 57 15 -3 5 15 9 40 9 25 0 46 4 46 10 0 5 23 12 50 16 28 4 50
10 50 15 0 5 15 9 33 9 17 0 41 7 51 15 11 8 28 15 39 15 10 0 25 7 33 15 9 8
30 15 47 15 24 0 28 3 17 10 -11 7 -7 10 18 10 18 0 40 7 48 15 9 8 26 15 40
15 13 0 24 5 24 10 0 6 11 10 24 10 13 0 26 5 28 12 2 6 15 13 29 15 13 2 26
8 27 13 2 6 15 10 28 10 15 0 24 6 24 15 0 9 9 15 25 15 14 0 25 4 25 9 0 5
11 12 25 15 14 4 25 11 25 16 0 6 14 10 30 10 17 0 30 4 30 10 0 5 11 12 25
16 14 3 25 10 25 15 0 5 9 9 20 9 11 0 20 5 20 10 0 6 7 10 15 10 8 0 23 9 32
20 10 11 23 20 30 20 7 0 13 5 13 10 0 6 9 10 20 10 11 0 20 4 20 9 0 5 11 12
25 15 14 4 25 11 25 16 0 6 7 10 15 10 8 0 15 4 15 10 0 5 12 13 26 16 19 5
22 9 12 15 -9 6 -7 9 10 9 12 0 22 5 22 10 0 6 8 14 18 17 17 7 28 15 57 41 7
6 17 12 21 12 4 0 17 11 30 25 13 14 28 25 34 25 6 0 21 11 34 25 13 14 28 25
35 25 6 0 11 7 11 15 0 8 5 15 10 15 10 0 22 8 55 38 7 6 18 12 24 12 6 0 11
7 11 15 0 8 7 15 15 15 8 0 15 5 15 10 0 6 9 10 19 10 10 0 21 7 25 15 3 8 12
15 21 15 8 0 14 5 13 11 -2 6 6 13 17 15 11 1 21 8 23 13 2 6 8 11 14 11 5 0
16 7 24 15 9 8 26 15 40 15 13 0 24 5 24 10 0 6 18 10 40 10 22 0 40 4 40 10
0 5 18 13 40 16 22 4 40 10 40 15 0 5 24 9 54 9 35 0 56 5 58 13 4 9 67 12
273 12 206 0 269 -3 272 -12 3 -8 23 -13 49 -13 28 0 43 -4 39 -10 -3 -6 5
-10 19 -10 14 0 28 -5 31 -10 4 -6 11 -8 16 -5 5 4 9 1 9 -4 0 -6 7 -11 15
-11 8 0 15 -4 15 -10 0 -5 9 -10 20 -10 11 0 23 -7 26 -15 4 -8 15 -15 25 -15
22 0 60 -30 53 -42 -3 -4 2 -8 10 -8 9 0 16 -7 16 -15 0 -8 5 -15 11 -15 14 0
39 -25 39 -39 0 -6 7 -11 16 -11 8 0 12 -5 9 -10 -3 -6 1 -13 9 -16 9 -3 16
-15 16 -25 0 -10 5 -19 10 -19 6 0 14 -8 17 -17 4 -10 13 -24 20 -31 18 -19
17 -62 -2 -62 -8 0 -15 -4 -15 -9 0 -5 -11 -12 -25 -15 -14 -4 -25 -11 -25
-16 0 -6 -47 -10 -117 -10 -75 0 -113 4 -104 9 10 7 -4 12 -47 17 -34 3 -62
11 -62 15 0 5 -19 9 -42 9 -24 1 -54 7 -68 15 -14 8 -42 14 -62 15 -21 0 -38
5 -38 10 0 6 -28 10 -65 10 -37 0 -65 4 -65 10 0 6 -16 10 -35 10 -19 0 -35
-4 -35 -10 0 -5 -18 -10 -40 -10 -22 0 -40 -4 -40 -10 0 -5 -7 -10 -15 -10 -8
0 -15 -5 -15 -11 0 -7 -11 -22 -25 -35 -29 -26 -35 -84 -10 -84 8 0 15 5 15
10 0 6 15 10 34 10 19 0 36 5 38 10 2 6 26 15 53 19 28 5 43 10 35 11 -26 4
43 18 97 19 34 1 57 -4 67 -14 8 -8 24 -15 35 -15 12 0 21 -6 21 -15 0 -8 5
-15 11 -15 14 0 39 -25 39 -39 0 -6 7 -11 15 -11 11 0 15 -11 15 -35 0 -22 -6
-38 -15 -41 -8 -4 -15 -10 -15 -16 0 -11 -25 -38 -36 -38 -3 0 -21 -15 -38
-34 -18 -18 -42 -37 -54 -40 -12 -4 -22 -12 -22 -17 0 -5 -7 -9 -15 -9 -8 0
-15 -6 -15 -12 0 -9 -4 -8 -10 2 -8 13 -10 12 -10 -2 0 -10 -7 -18 -15 -18 -8
0 -15 -4 -15 -9 0 -5 -11 -12 -25 -15 -14 -4 -25 -11 -25 -16 0 -6 -7 -10 -15
-10 -8 0 -15 -4 -15 -10 0 -5 -11 -10 -24 -10 -14 0 -31 -7 -40 -15 -8 -8 -25
-15 -38 -15 -18 0 -20 -2 -8 -10 12 -8 9 -10 -12 -10 -15 0 -33 -6 -40 -13 -7
-8 -30 -17 -51 -21 -20 -4 -37 -11 -37 -16 0 -6 -50 -11 -117 -11 -69 -1 -105
-4 -88 -8 19 -5 -18 -9 -100 -13 -84 -3 -130 -9 -133 -17 -2 -6 -15 -11 -28
-11 -13 0 -24 -4 -24 -9 0 -5 -11 -12 -25 -15 -14 -4 -25 -11 -25 -16 0 -6
-11 -10 -25 -10 -14 0 -25 -4 -25 -9 0 -5 -12 -12 -27 -16 -21 -5 -24 -8 -12
-16 10 -6 7 -9 -13 -9 -18 0 -28 -5 -28 -15 0 -9 -10 -15 -26 -15 -14 0 -23
-4 -19 -10 3 -6 -2 -13 -12 -17 -10 -4 -25 -14 -33 -23 -8 -10 -25 -20 -37
-24 -13 -4 -23 -12 -23 -17 0 -5 -7 -9 -15 -9 -8 0 -15 -7 -15 -15 0 -8 -7
-15 -16 -15 -8 0 -12 -4 -9 -10 3 -5 -1 -10 -9 -10 -9 0 -16 -7 -16 -15 0 -8
-5 -15 -11 -15 -14 0 -39 -25 -39 -39 0 -6 -5 -11 -10 -11 -12 0 -25 -10 -70
-52 -15 -16 -33 -28 -39 -28 -6 0 -11 -5 -11 -11 0 -14 -25 -39 -39 -39 -6 0
-11 -5 -11 -11 0 -14 -25 -39 -39 -39 -6 0 -11 -5 -11 -11 0 -7 -11 -22 -25
-35 -14 -13 -25 -30 -25 -39 0 -8 -7 -15 -15 -15 -8 0 -15 -7 -15 -15 0 -8 -5
-15 -11 -15 -14 0 -39 -25 -39 -39 0 -6 -7 -11 -15 -11 -8 0 -15 -5 -15 -10 0
-14 -57 -70 -71 -70 -5 0 -20 -11 -33 -25 -13 -14 -28 -25 -35 -25 -6 0 -11
-5 -11 -11 0 -11 -54 -69 -65 -69 -10 0 -35 -28 -35 -39 0 -6 -11 -11 -25 -11
-16 0 -25 -6 -25 -15 0 -8 -7 -15 -15 -15 -8 0 -15 -4 -15 -10 0 -5 -5 -10
-10 -10 -12 0 -25 -10 -70 -52 -15 -16 -36 -28 -46 -28 -9 0 -27 -11 -40 -25
-13 -14 -31 -25 -40 -25 -9 0 -27 -11 -40 -25 -13 -14 -30 -25 -37 -25 -8 0
-17 -7 -21 -15 -3 -8 -16 -15 -28 -15 -17 0 -19 -3 -10 -9 10 -6 7 -10 -12
-15 -14 -3 -26 -11 -26 -16 0 -6 -11 -10 -25 -10 -14 0 -25 -4 -25 -9 0 -5
-11 -12 -25 -15 -14 -4 -25 -11 -25 -16 0 -6 -7 -10 -15 -10 -8 0 -15 -4 -15
-9 0 -5 -11 -12 -25 -15 -14 -4 -25 -10 -25 -15 0 -5 -13 -12 -30 -16 -16 -4
-30 -11 -30 -16 0 -5 -9 -9 -20 -9 -11 0 -20 -4 -20 -9 0 -5 -11 -12 -25 -15
-14 -4 -25 -11 -25 -16 0 -6 -12 -10 -27 -10 -19 0 -24 -3 -15 -9 9 -5 0 -10
-27 -15 -23 -3 -41 -11 -41 -16 0 -6 -7 -10 -15 -10 -8 0 -15 -4 -15 -9 0 -5
-17 -12 -37 -16 -24 -4 -32 -9 -24 -14 9 -6 0 -11 -23 -15 -20 -4 -36 -11 -36
-16 0 -6 -11 -10 -25 -10 -14 0 -25 -4 -25 -9 0 -5 -13 -12 -30 -16 -16 -4
-30 -11 -30 -16 0 -5 -11 -9 -25 -9 -14 0 -25 -4 -25 -9 0 -5 -16 -12 -35 -15
-19 -4 -35 -11 -35 -16 0 -6 -13 -10 -30 -10 -20 0 -30 -5 -30 -15 0 -10 -11
-15 -35 -15 -19 0 -35 -4 -35 -9 0 -5 -13 -12 -30 -16 -16 -4 -30 -11 -30 -16
0 -5 -16 -9 -35 -9 -19 0 -35 -4 -35 -9 0 -5 -18 -11 -40 -15 -22 -3 -40 -11
-40 -16 0 -6 -16 -10 -35 -10 -19 0 -35 -4 -35 -9 0 -5 -22 -11 -50 -15 -27
-4 -50 -11 -50 -16 0 -5 -18 -13 -40 -16 -22 -4 -40 -10 -40 -15 0 -5 -25 -9
-56 -9 -31 0 -53 -4 -49 -9 3 -5 -24 -13 -60 -16 -36 -4 -65 -11 -65 -16 0 -5
-25 -9 -55 -9 -30 0 -55 -4 -55 -9 0 -5 -34 -12 -75 -16 -41 -4 -75 -11 -75
-16 0 -5 -36 -9 -81 -9 -44 0 -78 -4 -75 -9 3 -5 -64 -13 -152 -17 -112 -6
-144 -10 -112 -15 45 -6 45 -6 -15 -8 -224 -6 -370 -15 -373 -22 -2 -5 -60 -9
-128 -9 -69 0 -123 -4 -120 -9 3 -4 -38 -11 -92 -15 -53 -4 -98 -11 -100 -16
-2 -6 -28 -10 -58 -10 -30 0 -54 -4 -54 -10 0 -5 -11 -12 -25 -16 -18 -4 -25
-13 -25 -30 0 -13 -4 -24 -10 -24 -6 0 -10 -32 -10 -77 0 -47 4 -73 9 -65 5 8
10 -25 13 -83 3 -53 10 -101 17 -108 13 -13 16 -324 3 -344 -5 -8 -79 -14
-245 -19 -130 -4 -237 -11 -237 -16 0 -4 -74 -8 -164 -8 -102 0 -166 -4 -168
-10 -2 -7 -121 -13 -321 -17 -174 -3 -317 -10 -317 -15 0 -4 -88 -8 -195 -8
-107 0 -195 4 -195 8 0 10 -364 24 -386 15 -17 -6 -20 -113 -4 -129 7 -7 9
-147 7 -410 -3 -377 -4 -415 -18 -439 -3 -5 -7 -37 -8 -70 -1 -33 -7 -61 -12
-63 -5 -2 -9 -25 -9 -51 0 -26 -7 -56 -15 -67 -8 -10 -15 -39 -15 -64 0 -33
-3 -41 -10 -30 -7 11 -10 0 -10 -38 0 -37 -4 -54 -15 -58 -9 -4 -15 -19 -15
-38 0 -18 -7 -41 -15 -52 -8 -10 -15 -36 -15 -57 0 -23 -4 -36 -10 -32 -6 4
-10 -10 -10 -34 0 -21 -5 -41 -11 -43 -5 -2 -13 -24 -16 -48 -3 -25 -10 -47
-14 -50 -4 -3 -9 -22 -11 -43 -1 -20 -7 -38 -13 -41 -6 -2 -12 -19 -13 -37 -1
-19 -7 -35 -12 -37 -6 -2 -10 -21 -10 -43 0 -21 -5 -39 -11 -39 -5 0 -8 -4 -4
-9 3 -5 1 -12 -4 -15 -12 -8 -15 -273 -3 -280 5 -3 7 -17 4 -31 -2 -15 0 -25
7 -25 7 0 11 -24 11 -65 0 -36 4 -65 9 -65 4 0 11 -32 13 -72 3 -40 11 -74 17
-76 7 -2 11 -30 11 -70 0 -40 4 -62 9 -54 11 19 23 -237 15 -341 -4 -48 -11
-84 -15 -81 -5 3 -9 -6 -9 -19 0 -14 -10 -32 -25 -43 -14 -10 -25 -24 -25 -31
0 -7 -7 -13 -16 -13 -8 0 -12 -5 -9 -11 4 -6 -2 -13 -14 -16 -12 -3 -21 -9
-21 -14 0 -5 -9 -9 -21 -9 -11 0 -27 -7 -35 -15 -9 -8 -33 -15 -55 -15 -21 0
-39 -4 -39 -10 0 -6 -62 -10 -167 -9 -100 1 -156 4 -138 9 26 7 22 8 -22 9
-44 1 -53 -2 -53 -16 0 -10 -7 -27 -15 -37 -21 -28 -21 -164 0 -172 8 -4 15
-17 15 -30 0 -14 6 -24 14 -24 7 0 19 -7 26 -15 7 -8 21 -15 32 -15 10 0 16
-4 13 -10 -4 -6 7 -10 27 -10 18 0 51 -7 73 -15 22 -8 81 -15 130 -16 61 -1
82 -4 65 -9 -15 -5 43 -8 142 -9 91 -1 168 -5 170 -10 3 -9 92 -20 166 -21 26
0 41 -4 37 -10 -3 -5 1 -11 9 -11 9 -1 21 -3 26 -4 6 -1 36 -3 68 -4 41 -1 53
-4 42 -11 -10 -7 8 -10 62 -10 44 0 78 -4 80 -10 2 -6 36 -13 76 -17 39 -3 72
-10 72 -14 0 -5 29 -9 64 -9 37 0 66 -5 68 -11 2 -6 40 -13 85 -16 46 -3 80
-10 77 -14 -3 -5 19 -9 48 -9 29 0 71 -7 93 -15 22 -8 67 -14 100 -15 37 0 55
-4 47 -9 -17 -10 31 -21 94 -21 24 0 44 -4 44 -10 0 -6 26 -10 58 -10 32 0 63
-5 68 -10 6 -6 43 -14 82 -17 40 -3 72 -10 72 -14 0 -5 29 -9 64 -9 36 0 66
-5 68 -10 2 -6 36 -13 76 -17 39 -3 72 -10 72 -14 0 -5 27 -9 59 -9 69 0 100
-8 79 -21 -8 -5 11 -9 48 -9 34 0 78 -7 98 -15 20 -8 38 -15 41 -15 77 2 108
-2 95 -10 -11 -7 3 -10 46 -10 34 0 78 -7 97 -15 20 -8 59 -15 87 -15 32 0 49
-4 45 -10 -4 -6 18 -10 59 -10 40 0 66 -4 68 -12 2 -6 36 -14 79 -18 41 -4 67
-8 59 -10 -25 -4 41 -18 95 -19 36 -1 46 -4 35 -11 -11 -7 2 -10 45 -10 37 0
68 -6 79 -15 11 -9 41 -15 68 -15 26 0 48 -4 48 -10 0 -5 16 -10 36 -10 19 0
42 -7 50 -15 9 -9 34 -15 60 -15 28 0 43 -4 39 -10 -4 -6 14 -10 47 -10 29 -1
64 -7 78 -15 14 -8 53 -15 90 -15 39 0 60 -4 52 -9 -20 -12 20 -21 103 -21 49
0 65 -3 55 -10 -10 -7 7 -10 58 -10 42 0 88 -6 109 -15 20 -8 66 -15 107 -15
49 0 66 -3 56 -10 -10 -7 7 -10 56 -10 41 0 87 -7 107 -15 20 -8 65 -15 99
-15 44 0 59 -3 48 -10 -11 -7 0 -10 37 -10 32 0 57 -6 67 -15 9 -9 33 -15 60
-15 25 0 46 -4 46 -10 0 -5 18 -13 40 -16 22 -4 40 -10 40 -15 0 -5 16 -9 36
-9 19 0 42 -7 50 -15 9 -8 26 -15 40 -15 13 0 24 -4 24 -10 0 -5 11 -10 24
-10 13 0 26 -7 30 -15 3 -8 17 -15 31 -15 14 0 24 -5 23 -11 -2 -6 8 -13 22
-15 14 -3 27 -9 28 -14 2 -6 10 -10 18 -10 8 0 14 -4 14 -10 0 -5 11 -12 25
-16 14 -3 22 -10 19 -15 -3 -5 2 -9 10 -9 9 0 16 -4 16 -10 0 -5 11 -12 25
-16 14 -3 25 -10 25 -15 0 -5 7 -9 15 -9 8 0 15 -5 15 -11 0 -6 23 -33 50 -60
28 -27 50 -51 50 -54 0 -6 11 -20 38 -50 6 -7 12 -18 12 -24 0 -6 4 -11 9 -11
5 0 12 -12 16 -27 4 -19 9 -23 15 -14 6 10 10 7 15 -10 4 -13 16 -31 25 -39 9
-8 20 -25 24 -37 4 -13 12 -23 17 -23 5 0 9 -7 9 -15 0 -8 5 -15 10 -15 6 0
10 -7 10 -15 0 -8 7 -15 15 -15 9 0 15 -9 15 -25 0 -15 5 -24 13 -23 6 2 11
-3 9 -9 -1 -7 5 -13 13 -13 9 0 15 -9 15 -25 0 -16 6 -25 15 -25 8 0 15 -5 15
-11 0 -7 11 -22 25 -35 14 -13 25 -32 25 -44 0 -11 6 -19 13 -18 6 2 11 -3 9
-9 -1 -7 5 -13 13 -13 8 0 15 -7 15 -15 0 -15 6 -25 38 -60 6 -7 12 -18 12
-24 0 -6 4 -11 10 -11 5 0 12 -11 16 -25 3 -13 11 -23 18 -22 6 1 10 -4 8 -11
-1 -7 5 -15 13 -18 8 -4 15 -10 15 -15 0 -9 8 -21 38 -54 6 -7 12 -16 12 -20
0 -6 10 -19 38 -50 6 -7 12 -19 12 -26 0 -6 11 -22 25 -35 14 -13 25 -30 25
-39 0 -8 7 -15 15 -15 8 0 15 -5 15 -11 0 -7 11 -22 25 -35 14 -13 25 -32 25
-44 0 -11 5 -20 11 -20 14 0 39 -25 39 -39 0 -6 4 -11 10 -11 5 0 12 -11 16
-25 3 -14 10 -25 15 -25 5 0 9 -4 9 -10 0 -14 32 -50 41 -45 4 3 10 -6 13 -20
4 -14 11 -25 16 -25 6 0 10 -7 10 -15 0 -8 5 -15 11 -15 14 0 39 -25 39 -39 0
-6 5 -11 10 -11 6 0 10 -7 10 -15 0 -8 7 -15 15 -15 8 0 15 -7 15 -15 0 -9 11
-26 25 -39 14 -13 25 -28 25 -35 0 -6 5 -11 11 -11 14 0 39 -25 39 -39 0 -6 7
-11 15 -11 8 0 15 -5 15 -11 0 -7 11 -22 25 -35 14 -13 25 -30 25 -39 0 -8 7
-15 15 -15 8 0 15 -7 15 -16 0 -8 5 -12 10 -9 6 3 10 1 10 -4 0 -14 37 -51 50
-51 6 0 10 -7 10 -16 0 -8 5 -12 10 -9 6 3 10 -1 10 -9 0 -9 7 -16 15 -16 8 0
15 -7 15 -16 0 -8 5 -12 10 -9 6 3 10 -1 10 -9 0 -9 7 -16 15 -16 8 0 15 -7
15 -16 0 -8 5 -12 10 -9 6 3 10 1 10 -5 0 -12 72 -80 85 -80 3 0 21 -16 39
-35 19 -19 39 -35 45 -35 6 0 11 -4 11 -10 0 -13 57 -70 70 -70 5 0 10 -4 10
-9 0 -5 10 -13 21 -16 24 -8 79 -60 79 -75 0 -6 5 -10 10 -10 10 0 22 -8 55
-37 7 -7 17 -13 21 -13 4 0 17 -11 30 -25 13 -14 30 -25 39 -25 17 0 75 -54
75 -70 0 -6 10 -10 21 -10 12 0 36 -15 53 -34 18 -18 42 -37 54 -40 12 -4 22
-12 22 -17 0 -5 7 -9 15 -9 8 0 15 -4 15 -10 0 -5 7 -10 15 -10 8 0 15 -7 15
-15 0 -8 8 -15 19 -15 10 0 27 -11 37 -25 10 -14 27 -25 37 -25 10 0 28 -11
40 -24 12 -13 32 -26 45 -30 12 -4 22 -12 22 -17 0 -5 7 -9 15 -9 8 0 15 -7
15 -15 0 -8 9 -15 20 -15 11 0 20 7 20 15 0 8 7 15 15 15 8 0 15 7 15 15 0 8
5 15 11 15 7 0 22 12 36 26 19 21 29 24 53 19 17 -4 30 -11 30 -16 0 -5 18 -9
40 -9 22 0 40 -4 40 -10 0 -5 10 -10 23 -10 13 0 32 -7 43 -15 10 -8 29 -15
42 -15 12 0 22 -6 22 -13 0 -7 14 -14 32 -15 18 -2 35 -6 38 -11 3 -4 17 -11
33 -15 15 -3 27 -11 27 -16 0 -6 11 -10 25 -10 14 0 25 -4 25 -10 0 -5 11 -10
24 -10 14 0 31 -7 40 -15 8 -8 31 -15 50 -15 20 0 36 -4 36 -10 0 -13 97 -13
102 0 2 6 13 12 26 13 12 0 22 7 22 14 0 7 11 13 25 13 14 0 25 4 25 9 0 5 10
11 23 15 12 3 32 14 44 26 12 11 31 20 43 20 11 0 20 7 20 15 0 9 9 15 25 15
16 0 25 6 25 15 0 9 10 15 26 15 14 0 23 4 19 10 -3 6 3 10 13 10 11 0 22 7
26 15 3 8 15 15 26 15 11 0 20 5 20 10 0 6 7 10 15 10 8 0 15 7 15 16 0 8 4
12 10 9 5 -3 17 3 27 15 10 11 21 20 26 20 7 0 20 9 52 38 7 6 17 12 21 12 3
0 21 15 38 34 18 18 42 37 54 40 12 4 22 12 22 17 0 5 7 9 15 9 8 0 15 7 15
15 0 8 5 15 11 15 14 0 39 25 39 39 0 6 5 11 11 11 14 0 39 25 39 39 0 6 5 11
11 11 14 0 39 25 39 39 0 6 7 11 15 11 8 0 15 7 15 15 0 8 5 15 11 15 14 0 39
25 39 39 0 6 7 11 15 11 8 0 14 6 12 13 -1 6 4 11 11 10 6 -2 12 6 12 17 0 12
11 31 25 44 14 13 25 28 25 35 0 6 7 11 16 11 8 0 12 5 9 10 -3 6 1 13 9 16 9
3 16 15 16 25 0 10 7 19 15 19 8 0 15 7 15 15 0 8 4 15 10 15 5 0 12 11 16 25
3 14 10 25 15 25 5 0 9 7 9 15 0 8 7 15 15 15 8 0 15 9 15 21 0 11 5 17 10 14
6 -3 10 3 10 14 0 12 7 21 15 21 8 0 15 7 15 15 0 8 5 15 10 15 6 0 10 7 10
15 0 8 5 15 11 15 5 0 7 5 4 10 -3 6 -1 10 4 10 6 0 11 7 11 15 0 8 3 14 8 12
4 -1 26 17 50 41 23 23 49 42 59 42 9 0 14 3 10 6 -9 9 63 44 91 44 13 0 20 4
17 10 -4 6 13 10 44 10 31 0 51 5 53 13 3 8 43 13 140 15 113 3 138 1 151 -12
8 -9 21 -16 27 -16 14 0 40 -25 40 -39 0 -6 5 -11 11 -11 5 0 7 -4 4 -10 -3
-5 -1 -10 4 -10 6 0 11 -9 11 -21 0 -11 5 -17 10 -14 6 3 10 -1 10 -9 0 -10 9
-16 25 -16 14 0 25 -4 25 -10 0 -5 11 -10 25 -10 16 0 25 -6 25 -15 0 -8 7
-15 15 -15 8 0 15 -4 15 -10 0 -5 7 -10 15 -10 8 0 15 -7 15 -15 0 -8 5 -15
10 -15 6 0 10 -11 10 -24 0 -13 6 -26 13 -28 9 -4 13 -48 15 -166 3 -131 0
-166 -12 -191 -9 -16 -16 -48 -16 -71 0 -22 -4 -40 -10 -40 -5 0 -10 -10 -10
-23 0 -13 -7 -32 -15 -43 -8 -10 -15 -34 -15 -51 0 -23 -5 -33 -15 -33 -10 0
-15 -11 -15 -35 0 -19 -4 -35 -10 -35 -5 0 -10 -10 -10 -22 0 -13 -7 -32 -15
-42 -8 -11 -15 -37 -15 -58 0 -21 -4 -38 -9 -38 -4 0 -11 -24 -14 -52 -4 -29
-11 -54 -17 -56 -5 -2 -10 -22 -10 -43 0 -22 -4 -38 -9 -35 -5 3 -11 -18 -13
-46 -3 -29 -11 -54 -17 -56 -6 -2 -11 -19 -11 -38 0 -19 -4 -34 -9 -34 -5 0
-11 -18 -15 -40 -3 -22 -11 -40 -16 -40 -6 0 -10 -11 -10 -24 0 -13 -7 -29
-15 -36 -8 -7 -15 -25 -15 -41 0 -16 -4 -29 -10 -29 -5 0 -10 -11 -10 -25 0
-14 -7 -28 -15 -31 -8 -4 -15 -17 -15 -31 0 -13 -4 -21 -10 -18 -6 3 -10 -5
-10 -18 0 -14 -7 -27 -15 -31 -8 -3 -15 -15 -15 -26 0 -12 -11 -33 -25 -48
-14 -15 -25 -32 -25 -39 0 -7 -7 -13 -15 -13 -8 0 -15 -7 -15 -15 0 -8 -4 -15
-9 -15 -5 0 -12 -11 -15 -25 -4 -14 -11 -25 -16 -25 -6 0 -10 -7 -10 -16 0 -8
-4 -13 -8 -10 -9 6 -42 -29 -42 -44 0 -6 -3 -9 -7 -9 -20 3 -34 -2 -28 -11 3
-5 -3 -10 -14 -10 -12 0 -21 -7 -21 -15 0 -8 -5 -15 -11 -15 -6 0 -17 -7 -25
-15 -9 -8 -24 -15 -35 -15 -10 0 -19 -4 -19 -10 0 -5 -8 -10 -17 -10 -10 0
-27 -7 -37 -15 -11 -8 -30 -15 -43 -15 -13 0 -23 -4 -23 -10 0 -5 -13 -10 -29
-10 -16 0 -36 -7 -45 -15 -8 -9 -18 -16 -21 -15 -39 2 -65 -2 -60 -10 3 -6 -3
-10 -14 -10 -20 0 -76 -26 -99 -47 -7 -7 -18 -13 -23 -13 -14 0 -137 -127
-144 -149 -3 -12 -11 -19 -16 -16 -5 4 -9 -3 -9 -15 0 -11 -7 -23 -15 -26 -8
-4 -15 -15 -15 -25 0 -10 -4 -19 -10 -19 -5 0 -10 -11 -10 -25 0 -14 -7 -28
-15 -31 -9 -4 -15 -19 -15 -40 0 -19 -4 -34 -9 -34 -5 0 -11 -18 -15 -40 -3
-22 -11 -40 -16 -40 -6 0 -10 -18 -10 -39 0 -22 -4 -41 -9 -43 -5 -1 -12 -23
-15 -48 -3 -25 -11 -46 -16 -48 -6 -2 -10 -25 -10 -52 0 -33 -5 -50 -15 -54
-11 -4 -15 -21 -15 -66 0 -33 -4 -60 -10 -60 -5 0 -10 -13 -10 -29 0 -16 -6
-36 -13 -43 -7 -7 -14 -29 -16 -48 -1 -19 -7 -36 -12 -38 -5 -2 -9 -14 -9 -27
0 -13 -7 -30 -15 -39 -8 -8 -15 -26 -15 -40 0 -14 -4 -26 -9 -26 -5 0 -12 -11
-15 -25 -4 -14 -11 -25 -16 -25 -6 0 -10 -7 -10 -15 0 -8 -4 -15 -9 -15 -5 0
-13 -10 -17 -22 -8 -26 -28 -48 -43 -48 -6 0 -11 -7 -11 -15 0 -8 -7 -15 -16
-15 -8 0 -12 -5 -9 -10 3 -6 -1 -10 -9 -10 -9 0 -16 -7 -16 -15 0 -9 -9 -15
-25 -15 -14 0 -25 -4 -25 -9 0 -5 -11 -12 -25 -15 -14 -4 -25 -11 -25 -16 0
-6 -18 -10 -40 -10 -29 0 -40 -4 -40 -15 0 -12 -19 -15 -114 -15 -89 0 -118 3
-130 15 -8 8 -31 15 -50 15 -20 0 -36 4 -36 10 0 5 -18 13 -40 16 -22 4 -40
10 -40 15 0 5 -11 9 -25 9 -14 0 -25 5 -25 11 0 5 -4 7 -10 4 -5 -3 -10 -1
-10 4 0 6 -11 11 -25 11 -14 0 -25 5 -25 10 0 6 -7 10 -15 10 -8 0 -15 4 -15
9 0 5 -14 12 -30 16 -17 4 -28 11 -24 16 3 5 -6 9 -20 9 -16 0 -26 6 -26 15 0
8 -7 15 -15 15 -8 0 -15 4 -15 10 0 5 -11 12 -25 16 -14 3 -25 10 -25 15 0 5
-7 9 -15 9 -8 0 -15 4 -15 9 0 5 -9 13 -21 16 -12 4 -39 25 -60 46 -21 21 -44
39 -50 39 -6 0 -25 16 -43 35 -19 19 -37 35 -41 35 -4 0 -18 11 -31 25 -13 14
-30 25 -39 25 -8 0 -15 4 -15 10 0 13 -57 70 -70 70 -5 0 -10 5 -10 11 0 11
-24 39 -34 39 -10 0 -66 59 -66 70 0 5 -7 10 -15 10 -8 0 -15 5 -15 11 0 14
-25 39 -39 39 -6 0 -11 5 -11 11 0 14 -25 39 -39 39 -6 0 -11 7 -11 15 0 8 -7
15 -15 15 -12 0 -15 -13 -15 -55 0 -40 4 -57 15 -61 20 -8 22 -144 2 -144 -7
0 -14 -10 -14 -22 -1 -13 -7 -24 -13 -26 -5 -2 -10 -10 -10 -18 0 -8 -7 -14
-15 -14 -8 0 -15 -4 -15 -10 0 -6 -27 -10 -60 -10 -33 0 -60 4 -60 10 0 6 -18
10 -40 10 -29 0 -40 4 -40 15 0 9 -9 15 -24 15 -13 0 -26 7 -30 15 -3 8 -15
15 -26 15 -11 0 -20 5 -20 10 0 6 -11 10 -25 10 -14 0 -28 7 -31 15 -4 8 -12
15 -20 15 -8 0 -14 5 -14 10 0 6 -9 10 -19 10 -10 0 -21 7 -25 15 -3 8 -15 15
-26 15 -11 0 -20 5 -20 10 0 6 -7 10 -15 10 -8 0 -15 7 -15 15 0 8 -7 15 -15
15 -8 0 -15 5 -15 11 0 5 -4 7 -10 4 -5 -3 -10 -1 -10 4 0 6 -12 11 -27 11
-22 0 -25 2 -13 10 11 7 0 10 -37 10 -29 0 -53 4 -53 10 0 5 -11 12 -25 16
-14 3 -25 10 -25 15 0 5 -11 9 -24 9 -13 0 -26 7 -30 15 -3 8 -16 15 -28 15
-18 0 -20 2 -9 9 12 8 9 11 -12 16 -15 4 -27 11 -27 15 0 4 -11 11 -25 14 -14
4 -25 11 -25 16 0 6 -7 10 -15 10 -8 0 -15 4 -15 8 0 5 -16 17 -35 28 -19 10
-35 22 -35 26 0 5 -7 8 -15 8 -8 0 -15 6 -15 14 0 8 -11 17 -25 20 -14 4 -25
11 -25 16 0 6 -7 10 -16 10 -8 0 -12 5 -9 10 3 6 -1 10 -9 10 -9 0 -16 4 -16
10 0 5 -11 12 -25 16 -14 3 -25 10 -25 15 0 5 -7 9 -15 9 -8 0 -15 7 -15 15 0
8 -5 15 -10 15 -10 0 -22 8 -55 38 -7 6 -18 12 -24 12 -6 0 -11 7 -11 15 0 8
-5 15 -11 15 -7 0 -19 8 -28 19 -9 10 -26 21 -38 25 -13 4 -23 12 -23 17 0 5
-7 9 -15 9 -8 0 -15 7 -15 15 0 8 -7 15 -15 15 -8 0 -15 5 -15 11 0 13 -25 39
-39 39 -5 0 -21 11 -35 25 -14 14 -29 25 -34 25 -5 0 -18 11 -28 25 -10 14
-24 25 -31 25 -7 0 -30 18 -52 40 -22 22 -44 40 -50 40 -6 0 -11 4 -11 9 0 5
-9 13 -21 16 -11 4 -50 36 -85 71 -36 35 -70 64 -77 64 -7 0 -21 11 -31 25
-10 14 -23 25 -28 25 -5 0 -26 17 -48 38 -55 52 -68 62 -80 62 -5 0 -10 7 -10
15 0 8 -5 15 -11 15 -7 0 -19 8 -28 19 -9 10 -27 22 -40 26 -18 5 -21 9 -10
16 11 7 11 9 -3 9 -10 0 -35 18 -57 40 -22 22 -44 40 -50 40 -6 0 -11 4 -11 9
0 5 -10 13 -21 16 -17 6 -19 9 -8 16 11 7 10 9 -3 9 -27 0 -29 1 -86 58 -29
28 -58 52 -63 52 -5 0 -32 23 -59 50 -27 28 -52 50 -55 50 -6 0 -20 11 -50 38
-7 6 -18 12 -24 12 -6 0 -11 7 -11 15 0 8 -7 15 -16 15 -8 0 -12 5 -9 10 3 6
1 10 -6 10 -6 0 -22 11 -35 25 -13 14 -28 25 -33 25 -6 0 -28 18 -50 40 -22
22 -42 40 -46 40 -6 0 -19 10 -50 38 -7 6 -18 12 -24 12 -6 0 -11 7 -11 15 0
8 -7 15 -15 15 -8 0 -15 5 -15 10 0 6 -7 10 -15 10 -8 0 -15 7 -15 15 0 8 -9
15 -20 15 -11 0 -20 7 -20 15 0 8 -5 15 -11 15 -7 0 -22 11 -35 25 -13 14 -28
25 -34 25 -6 0 -9 4 -6 9 3 5 -5 12 -19 15 -14 4 -25 11 -25 16 0 6 -7 10 -15
10 -8 0 -15 7 -15 15 0 8 -5 15 -10 15 -10 0 -22 8 -55 38 -7 6 -18 12 -24 12
-6 0 -11 5 -11 10 0 6 -7 10 -15 10 -8 0 -15 7 -15 15 0 8 -9 15 -20 15 -11 0
-20 4 -20 9 0 5 -9 11 -21 14 -12 3 -18 10 -14 16 3 6 -1 11 -9 11 -9 0 -16 4
-16 9 0 5 -10 13 -22 17 -13 4 -33 17 -45 30 -12 13 -29 24 -38 24 -8 0 -15 5
-15 10 0 6 -7 10 -15 10 -8 0 -15 7 -15 15 0 9 -9 15 -25 15 -14 0 -25 4 -25
9 0 5 -12 12 -27 16 -21 5 -24 8 -12 16 10 6 8 9 -12 9 -14 0 -34 7 -45 15
-10 8 -41 15 -69 15 -36 0 -46 3 -35 10 11 7 -2 10 -43 10 -32 0 -74 7 -94 15
-19 8 -62 15 -94 15 -33 0 -59 4 -59 10 0 6 -27 10 -60 10 -33 0 -77 7 -97 15
-22 9 -68 15 -122 15 -51 0 -81 4 -73 9 22 14 -23 21 -148 22 -81 1 -103 4
-75 9 22 4 -77 7 -220 8 -144 0 -249 -4 -235 -8 16 -5 -9 -8 -75 -9 -119 -1
-183 -10 -163 -22 7 -5 -41 -9 -113 -9 -69 0 -129 -3 -133 -7 -4 -4 -25 -6
-47 -4 -22 1 -46 -2 -53 -8 -10 -8 -158 -10 -517 -7 -498 4 -573 7 -586 20 -3
3 -67 6 -142 7 -75 1 -125 4 -111 8 23 7 21 8 -15 14 -22 4 -80 7 -130 7 -56
0 -85 4 -76 9 9 6 -17 11 -70 14 -90 5 -114 9 -125 20 -4 4 -39 7 -78 7 -44 0
-66 4 -57 9 9 6 -15 11 -65 15 -101 7 -104 8 -104 18 0 4 -27 8 -61 8 -37 0
-58 4 -54 10 4 6 -15 10 -49 10 -60 0 -89 7 -80 21 3 5 -22 9 -55 9 -34 0 -61
4 -61 8 0 10 0 9 -87 18 -35 4 -63 10 -63 15 0 5 -28 9 -62 9 -40 1 -70 6 -82
15 -14 11 -46 15 -105 15 -59 0 -81 3 -71 10 10 6 -60 10 -207 10 -142 0 -223
-4 -223 -10 0 -5 -19 -10 -42 -10 -24 0 -52 -7 -62 -15 -11 -8 -32 -15 -48
-15 -15 0 -28 -4 -28 -10 0 -5 -11 -10 -25 -10 -14 0 -25 -4 -25 -10 0 -5 -11
-12 -25 -16 -14 -3 -25 -11 -25 -18 0 -6 -10 -13 -22 -13 -13 -1 -24 -7 -26
-13 -2 -5 -10 -10 -18 -10 -8 0 -14 -7 -14 -15 0 -8 -3 -14 -7 -14 -23 4 -43
-2 -38 -11 3 -5 -1 -10 -9 -10 -9 0 -16 -7 -16 -15 0 -8 -5 -15 -11 -15 -14 0
-39 -25 -39 -39 0 -6 -7 -11 -15 -11 -8 0 -15 -5 -15 -11 0 -14 -25 -39 -39
-39 -6 0 -11 -7 -11 -15 0 -8 -5 -15 -11 -15 -14 0 -39 -25 -39 -39 0 -6 -6
-11 -13 -11 -7 0 -13 -9 -14 -21 -1 -11 -18 -36 -37 -54 -20 -19 -36 -38 -36
-44 0 -6 -6 -11 -13 -11 -7 0 -14 -10 -14 -22 -1 -13 -7 -24 -13 -26 -5 -2
-10 -10 -10 -18 0 -8 -6 -14 -13 -14 -8 0 -22 -16 -33 -35 -10 -19 -22 -35
-26 -35 -5 0 -8 -7 -8 -15 0 -8 -4 -15 -10 -15 -5 0 -12 -11 -16 -25 -3 -14
-10 -25 -15 -25 -5 0 -9 -7 -9 -15 0 -8 -5 -15 -11 -15 -5 0 -7 -4 -4 -10 3
-5 1 -10 -4 -10 -6 0 -11 -7 -11 -15 0 -8 -4 -15 -10 -15 -5 0 -10 -9 -10 -20
0 -11 -7 -23 -15 -26 -8 -4 -15 -17 -15 -30 0 -15 -6 -24 -15 -24 -10 0 -15
-10 -15 -27 0 -22 -2 -25 -10 -13 -8 12 -10 9 -10 -12 0 -16 -6 -28 -13 -28
-7 0 -14 -10 -14 -22 -1 -13 -7 -24 -13 -26 -5 -2 -10 -14 -10 -27 0 -12 -7
-25 -15 -29 -8 -3 -15 -14 -15 -25 0 -11 -5 -21 -10 -23 -6 -2 -12 -13 -13
-26 0 -12 -7 -22 -14 -22 -8 0 -13 -12 -13 -31 0 -16 -4 -28 -9 -25 -5 3 -11
-8 -15 -25 -3 -17 -10 -28 -16 -24 -5 3 -10 -1 -10 -10 0 -8 -7 -18 -15 -21
-8 -4 -15 -16 -15 -28 0 -12 -11 -30 -25 -40 -14 -10 -25 -27 -25 -37 0 -11
-4 -19 -10 -19 -5 0 -10 -7 -10 -15 0 -8 -7 -15 -15 -15 -8 0 -15 -9 -15 -21
0 -11 -4 -17 -10 -14 -5 3 -10 -3 -10 -15 0 -11 -7 -23 -15 -26 -8 -4 -15 -12
-15 -19 0 -7 -7 -15 -15 -19 -8 -3 -15 -12 -15 -21 0 -8 -4 -15 -10 -15 -5 0
-10 -7 -10 -15 0 -8 -6 -15 -13 -15 -7 0 -14 -10 -14 -22 -1 -13 -7 -24 -13
-26 -5 -2 -10 -10 -10 -18 0 -8 -7 -14 -15 -14 -8 0 -15 -9 -15 -20 0 -11 -4
-20 -10 -20 -5 0 -10 -5 -10 -10 0 -6 -11 -21 -25 -34 -14 -13 -25 -33 -25
-45 0 -12 -6 -21 -15 -21 -8 0 -15 -7 -15 -15 0 -8 -4 -15 -9 -15 -5 0 -13
-10 -17 -22 -4 -13 -17 -33 -30 -45 -13 -12 -24 -30 -24 -40 0 -10 -11 -27
-25 -37 -14 -10 -25 -27 -25 -37 0 -11 -4 -19 -10 -19 -5 0 -10 -7 -10 -15 0
-8 -7 -15 -15 -15 -8 0 -15 -7 -15 -15 0 -8 -6 -15 -12 -15 -9 0 -8 -4 2 -10
13 -8 12 -10 -2 -10 -10 0 -18 -5 -18 -10 0 -6 -11 -23 -25 -38 -14 -15 -25
-32 -25 -39 0 -7 -4 -13 -10 -13 -5 0 -10 -7 -10 -15 0 -8 -7 -15 -15 -15 -9
0 -15 -9 -15 -25 0 -14 -4 -25 -10 -25 -5 0 -10 -7 -10 -15 0 -8 -7 -15 -15
-15 -8 0 -15 -9 -15 -20 0 -11 -4 -20 -10 -20 -5 0 -10 -7 -10 -15 0 -8 -7
-15 -15 -15 -8 0 -15 -7 -15 -15 0 -8 -5 -15 -11 -15 -5 0 -8 -4 -5 -8 3 -5
-4 -18 -14 -30 -11 -12 -20 -26 -20 -32 0 -5 -4 -10 -9 -10 -5 0 -13 -10 -17
-22 -4 -13 -17 -33 -30 -45 -13 -12 -24 -30 -24 -40 0 -10 -11 -27 -25 -37
-14 -10 -25 -27 -25 -37 0 -11 -7 -19 -15 -19 -8 0 -15 -7 -15 -15 0 -8 -4
-15 -10 -15 -5 0 -10 -7 -10 -15 0 -8 -5 -15 -11 -15 -5 0 -7 -4 -4 -10 3 -5
1 -10 -4 -10 -6 0 -11 -5 -11 -10 0 -6 -11 -23 -25 -38 -14 -15 -25 -32 -25
-39 0 -7 -4 -13 -10 -13 -5 0 -10 -7 -10 -15 0 -8 -7 -15 -15 -15 -9 0 -15 -9
-15 -25 0 -14 -4 -25 -10 -25 -5 0 -10 -7 -10 -15 0 -8 -7 -15 -15 -15 -8 0
-15 -7 -15 -15 0 -9 -10 -26 -23 -38 -12 -12 -31 -39 -42 -59 -11 -21 -23 -38
-27 -38 -5 0 -8 -7 -8 -15 0 -8 -4 -15 -10 -15 -5 0 -12 -11 -16 -25 -3 -14
-10 -25 -15 -25 -5 0 -9 -7 -9 -15 0 -8 -7 -15 -15 -15 -10 0 -15 -10 -15 -27
0 -21 -3 -24 -9 -14 -7 11 -10 9 -13 -10 -2 -13 -9 -23 -16 -22 -6 2 -12 -4
-12 -12 0 -8 -5 -15 -11 -15 -5 0 -7 -5 -4 -10 3 -6 1 -10 -4 -10 -6 0 -11 -7
-11 -15 0 -8 -4 -15 -10 -15 -5 0 -10 -7 -10 -15 0 -8 -4 -15 -9 -15 -5 0 -13
-10 -17 -22 -4 -13 -17 -33 -30 -45 -13 -12 -24 -29 -24 -38 0 -8 -4 -15 -10
-15 -5 0 -10 -7 -10 -15 0 -9 -7 -18 -15 -21 -8 -4 -15 -15 -15 -25 0 -10 -7
-19 -15 -19 -8 0 -15 -7 -15 -15 0 -8 -4 -15 -8 -15 -5 0 -17 -17 -28 -37 -10
-21 -29 -48 -41 -60 -13 -12 -23 -29 -23 -38 0 -8 -4 -15 -10 -15 -5 0 -10 -7
-10 -15 0 -8 -7 -15 -15 -15 -9 0 -15 -9 -15 -25 0 -14 -4 -25 -10 -25 -5 0
-10 -7 -10 -15 0 -8 -7 -15 -15 -15 -8 0 -15 -7 -15 -15 0 -8 -11 -25 -25 -39
-14 -14 -25 -30 -25 -36 0 -5 -5 -10 -11 -10 -5 0 -7 -5 -4 -10 3 -6 1 -10 -4
-10 -6 0 -11 -7 -11 -15 0 -8 -4 -15 -10 -15 -5 0 -10 -7 -10 -15 0 -8 -4 -15
-9 -15 -5 0 -13 -10 -17 -22 -4 -13 -17 -33 -30 -45 -13 -12 -24 -31 -24 -43
0 -11 -7 -20 -15 -20 -8 0 -15 -7 -15 -16 0 -8 -4 -13 -9 -10 -5 3 -12 -5 -15
-19 -4 -14 -11 -25 -16 -25 -6 0 -10 -7 -10 -15 0 -8 -4 -15 -8 -15 -5 0 -17
-17 -28 -37 -10 -21 -29 -48 -41 -60 -13 -12 -23 -29 -23 -38 0 -8 -4 -15 -10
-15 -5 0 -10 -7 -10 -15 0 -8 -6 -15 -14 -15 -8 0 -17 -11 -20 -25 -4 -14 -11
-25 -16 -25 -6 0 -10 -5 -10 -11 0 -6 -27 -38 -60 -70 -33 -32 -60 -63 -60
-69 0 -5 -5 -10 -11 -10 -6 0 -37 -27 -69 -60 -32 -33 -63 -60 -69 -60 -6 0
-11 -7 -11 -15 0 -8 -6 -15 -14 -15 -8 0 -16 -7 -20 -15 -3 -8 -12 -15 -20
-15 -7 0 -17 -7 -20 -16 -3 -8 -10 -12 -16 -9 -5 3 -10 -1 -10 -9 0 -9 -7 -16
-15 -16 -8 0 -15 -4 -15 -9 0 -5 -11 -12 -25 -15 -14 -4 -25 -11 -25 -16 0 -6
-5 -10 -10 -10 -10 0 -22 -8 -55 -38 -7 -6 -18 -12 -24 -12 -6 0 -11 -8 -11
-17 0 -15 -2 -16 -10 -3 -6 10 -10 11 -10 3 0 -7 -7 -13 -15 -13 -8 0 -15 -4
-15 -9 0 -5 -11 -12 -25 -15 -14 -4 -25 -11 -25 -16 0 -6 -11 -10 -24 -10 -13
0 -26 -3 -28 -7 -5 -13 -68 -43 -89 -43 -10 0 -19 -7 -19 -15 0 -8 -3 -14 -7
-14 -29 5 -73 -3 -68 -11 4 -6 -6 -10 -24 -10 -16 0 -36 -6 -43 -13 -7 -7 -35
-14 -63 -16 -27 -1 -53 -8 -57 -14 -11 -18 -570 -17 -576 1 -2 7 -22 12 -52
12 -27 0 -50 5 -52 10 -2 6 -26 13 -53 17 -28 3 -52 9 -55 14 -3 5 -20 9 -38
11 -18 1 -32 8 -32 15 0 7 -11 13 -26 13 -14 0 -32 7 -40 15 -9 8 -26 15 -40
15 -13 0 -24 5 -24 10 0 6 -12 10 -26 10 -14 0 -32 7 -40 15 -9 8 -24 15 -35
15 -11 0 -17 5 -14 10 4 6 -5 10 -19 10 -14 0 -26 5 -26 11 0 5 -4 8 -9 4 -5
-3 -12 -1 -16 5 -3 5 -16 10 -28 10 -16 0 -18 3 -9 9 10 6 7 10 -12 15 -14 3
-26 11 -26 16 0 6 -11 10 -25 10 -14 0 -25 4 -25 10 0 5 -11 12 -25 16 -14 3
-25 10 -25 15 0 5 -7 9 -15 9 -8 0 -15 6 -16 13 0 9 -2 9 -6 0 -3 -8 -12 -4
-27 12 -13 14 -33 25 -45 25 -12 0 -21 6 -21 15 0 8 -7 15 -15 15 -8 0 -15 4
-15 10 0 5 -11 12 -25 16 -14 3 -25 10 -25 15 0 5 -9 9 -19 9 -10 0 -21 7 -25
15 -3 8 -13 15 -21 15 -9 0 -13 5 -10 10 3 6 -1 10 -9 10 -9 0 -16 5 -16 11 0
5 -5 7 -10 4 -5 -3 -10 -1 -10 4 0 6 -7 11 -15 11 -8 0 -15 5 -15 10 0 6 -7
10 -15 10 -8 0 -15 7 -15 15 0 8 -9 15 -19 15 -10 0 -21 7 -25 15 -3 8 -11 15
-18 15 -8 0 -20 9 -28 19 -7 11 -17 18 -22 15 -4 -3 -8 0 -8 5 0 6 -7 11 -15
11 -8 0 -15 5 -15 10 0 6 -5 10 -11 10 -13 0 -39 25 -39 39 0 6 -11 13 -25 17
-14 3 -25 10 -25 15 0 5 -7 9 -15 9 -8 0 -15 7 -15 16 0 8 -5 12 -10 9 -6 -3
-13 1 -16 9 -3 9 -12 16 -20 16 -16 0 -74 55 -74 70 0 5 -5 10 -11 10 -7 0
-22 11 -35 25 -13 14 -32 25 -44 25 -11 0 -20 5 -20 11 0 14 -25 39 -39 39 -6
0 -11 4 -11 9 0 5 -10 13 -22 17 -13 4 -33 17 -45 30 -12 13 -31 24 -43 24
-11 0 -20 7 -20 15 0 10 -10 15 -27 15 -22 0 -25 2 -13 10 13 8 13 10 -2 10
-20 0 -78 32 -78 43 0 4 -11 7 -24 7 -13 0 -26 7 -30 15 -3 8 -18 15 -33 15
-21 0 -24 3 -14 9 12 8 9 11 -12 16 -15 4 -27 11 -27 16 0 5 -7 9 -15 9 -14 0
-61 25 -75 40 -3 3 -23 14 -45 25 -22 11 -41 23 -43 28 -2 4 -12 7 -23 7 -10
0 -19 7 -19 15 0 8 -9 15 -20 15 -12 0 -31 11 -43 24 -12 13 -32 26 -44 30
-13 4 -23 12 -23 17 0 5 -7 9 -15 9 -8 0 -15 5 -15 10 0 6 -7 10 -15 10 -8 0
-15 4 -15 10 0 5 -11 12 -25 16 -14 3 -25 10 -25 15 0 5 -11 9 -25 9 -16 0
-25 6 -25 15 0 9 -9 15 -25 15 -14 0 -25 4 -25 10 0 5 -16 12 -35 16 -19 3
-35 10 -35 15 0 5 -10 9 -22 9 -13 0 -32 7 -42 15 -11 8 -30 15 -43 15 -13 0
-23 5 -23 10 0 6 -12 10 -26 10 -14 0 -32 7 -40 15 -9 8 -24 15 -35 15 -11 0
-27 7 -35 15 -9 8 -26 15 -40 15 -13 0 -24 5 -24 10 0 6 -13 10 -30 10 -16 0
-30 4 -30 10 0 5 -18 13 -40 16 -22 4 -37 10 -34 15 3 5 -7 9 -21 9 -15 0 -33
7 -41 15 -9 8 -29 15 -45 15 -18 0 -28 4 -24 10 4 6 -7 10 -24 10 -21 0 -31 5
-31 15 0 10 -10 15 -31 15 -17 0 -37 7 -45 15 -9 8 -24 15 -35 15 -10 0 -19 5
-19 10 0 6 -9 10 -21 10 -11 0 -27 7 -35 15 -9 8 -26 15 -40 15 -13 0 -24 5
-24 10 0 6 -11 10 -25 10 -16 0 -25 6 -25 15 0 10 -10 15 -30 15 -16 0 -30 5
-30 10 0 6 -9 10 -20 10 -11 0 -23 7 -26 15 -4 8 -15 15 -25 15 -11 0 -22 7
-25 15 -4 8 -10 13 -14 10 -5 -3 -15 2 -23 10 -9 8 -27 15 -41 15 -16 0 -26 6
-26 15 0 8 -7 15 -15 15 -8 0 -15 5 -15 10 0 6 -11 10 -25 10 -14 0 -25 4 -25
10 0 5 -11 12 -25 16 -13 3 -23 11 -22 18 1 6 -11 12 -27 14 -22 3 -26 6 -15
13 10 6 7 9 -13 9 -19 0 -28 5 -28 16 0 8 -4 13 -9 9 -5 -3 -16 2 -24 10 -9 8
-20 15 -26 15 -6 0 -11 4 -11 10 0 5 -11 12 -25 16 -14 3 -25 10 -25 15 0 5
-7 9 -15 9 -8 0 -15 6 -15 14 0 8 -18 23 -40 34 -22 10 -37 22 -33 26 3 3 1 6
-5 6 -21 0 -52 34 -52 57 0 12 7 28 15 37 8 8 15 31 15 50 0 20 4 36 9 36 5 0
11 18 15 40 3 22 11 40 16 40 6 0 9 3 9 8 -1 4 -1 31 0 59 1 37 5 52 14 50 8
-1 13 19 15 71 2 39 7 72 12 72 6 0 10 34 10 75 0 43 -4 75 -10 75 -6 0 -10
28 -10 65 0 51 -3 65 -15 65 -8 0 -15 -4 -15 -10 0 -5 -7 -10 -15 -10 -8 0
-28 -14 -45 -30 -17 -16 -38 -30 -46 -30 -8 0 -12 -4 -9 -10 3 -5 -3 -10 -14
-10 -12 0 -21 -7 -21 -15 0 -9 -9 -15 -25 -15 -14 0 -25 -4 -25 -10 0 -5 -6
-10 -14 -10 -8 0 -16 -7 -20 -15 -3 -8 -14 -15 -25 -15 -10 0 -21 -7 -25 -15
-7 -20 -96 -21 -96 -1 0 8 -11 17 -25 20 -14 4 -25 11 -25 16 0 6 -5 10 -10
10 -13 0 -120 108 -120 120 0 6 -7 10 -16 10 -8 0 -12 5 -9 10 3 6 1 10 -5 10
-5 0 -33 23 -60 50 -27 28 -54 50 -60 50 -5 0 -10 7 -10 15 0 8 -4 15 -10 15
-5 0 -10 7 -10 15 0 8 -6 15 -13 15 -7 0 -19 9 -27 20 -8 11 -20 20 -26 20 -7
0 -19 6 -26 13 -36 32 -60 37 -188 37 -80 0 -130 -4 -130 -10 0 -6 -54 -10
-142 -10 -82 0 -137 -4 -130 -9 8 -5 -25 -10 -84 -13 -60 -3 -100 -10 -102
-17 -2 -6 -26 -11 -58 -11 -30 0 -54 -4 -54 -9 0 -4 -21 -11 -46 -14 -26 -2
-49 -9 -53 -14 -3 -4 -21 -10 -40 -12 -19 -1 -41 -9 -48 -17 -8 -8 -28 -14
-44 -14 -18 0 -28 -4 -24 -10 4 -6 -8 -10 -30 -10 -20 0 -38 -6 -41 -13 -2 -7
-19 -14 -36 -15 -18 -2 -35 -6 -38 -11 -3 -4 -17 -11 -32 -15 -16 -3 -28 -11
-28 -16 0 -6 -11 -10 -25 -10 -14 0 -25 -4 -25 -10 0 -5 -11 -10 -25 -10 -16
0 -25 -6 -25 -15 0 -9 -9 -15 -24 -15 -13 0 -26 -7 -30 -15 -3 -8 -14 -15 -25
-15 -11 0 -21 -5 -23 -10 -2 -6 -13 -12 -26 -13 -12 0 -22 -7 -22 -14 0 -8
-13 -13 -32 -13 -17 0 -29 -3 -25 -6 8 -8 -61 -44 -85 -44 -10 0 -17 -6 -15
-12 1 -8 -10 -14 -25 -16 -16 -2 -28 -8 -28 -13 0 -5 -15 -9 -34 -9 -19 0 -38
-5 -41 -10 -4 -6 -10 -8 -15 -5 -5 3 -11 1 -15 -5 -8 -13 -122 -13 -127 0 -2
6 -36 14 -76 17 -45 4 -68 9 -60 14 8 5 -8 9 -39 9 -40 0 -53 4 -53 15 0 8 -9
15 -19 15 -22 0 -81 31 -81 43 0 4 -5 7 -11 7 -11 0 -39 25 -39 35 0 4 -7 13
-15 21 -10 11 -15 37 -16 82 -1 49 -3 60 -9 42 l-8 -25 -1 27 c-1 15 -8 33
-16 42 -8 8 -15 19 -15 24 0 6 -7 12 -15 16 -8 3 -15 15 -15 26 0 11 -4 20
-10 20 -5 0 -10 15 -10 34 0 19 -5 38 -10 41 -13 8 -13 72 0 80 6 3 10 22 10
41 0 19 5 34 10 34 6 0 10 14 10 30 0 17 5 30 11 30 5 0 7 4 4 10 -3 6 -1 10
4 10 6 0 11 7 11 15 0 8 4 15 9 15 5 0 12 11 15 25 4 14 11 23 16 20 6 -3 10
1 10 9 0 9 7 16 15 16 8 0 15 7 15 15 0 8 5 15 10 15 6 0 10 7 10 15 0 8 5 15
12 15 6 0 9 3 5 6 -3 3 21 32 54 64 32 32 59 63 59 69 0 6 5 11 11 11 6 0 24
12 39 28 45 42 58 52 70 52 5 0 9 6 7 13 -1 6 4 11 11 10 6 -2 12 4 12 12 0 8
7 15 15 15 8 0 15 4 15 10 0 15 33 50 42 44 4 -3 8 2 8 10 0 8 11 26 25 40 14
14 25 30 25 36 0 5 7 10 15 10 8 0 15 5 15 11 0 7 16 26 35 45 19 18 35 37 35
43 0 6 7 11 15 11 8 0 15 5 15 10 0 6 7 10 15 10 8 0 15 5 15 11 0 6 6 17 14
25 8 8 19 14 25 14 6 0 11 7 11 15 0 8 5 15 10 15 6 0 10 7 10 15 0 8 5 15 10
15 6 0 33 23 60 50 28 28 50 47 50 43 0 -4 9 2 20 13 32 31 49 44 60 44 5 0
10 7 10 15 0 8 7 15 15 15 8 0 15 5 15 10 0 6 9 10 20 10 11 0 20 7 20 15 0 8
7 15 15 15 8 0 15 5 15 10 0 6 11 10 25 10 16 0 25 6 25 15 0 13 18 20 43 16
4 0 7 6 7 14 0 9 9 15 25 15 14 0 25 5 25 10 0 6 7 10 15 10 8 0 15 7 15 15 0
8 7 15 15 15 8 0 15 5 15 10 0 6 9 10 20 10 11 0 23 7 26 15 4 8 15 15 26 15
10 0 16 4 13 10 -4 6 7 10 25 10 18 0 33 6 36 15 4 9 19 15 39 15 18 0 49 7
68 15 30 12 99 15 397 15 238 0 359 3 355 10 -6 9 8 14 27 11 5 0 8 6 8 14 0
8 7 15 15 15 8 0 15 5 15 10 0 6 7 10 15 10 8 0 15 7 15 15 0 8 7 15 15 15 8
0 14 4 12 8 -1 5 19 29 45 55 27 25 48 51 48 57 0 5 7 10 15 10 8 0 15 7 15
16 0 8 5 12 10 9 6 -3 13 2 17 12 7 18 15 29 41 58 6 7 12 16 12 20 0 10 28
35 39 35 6 0 11 7 11 15 0 8 4 15 9 15 5 0 13 10 17 23 4 12 16 30 28 41 12
10 20 22 19 27 -2 5 1 9 7 9 5 0 39 29 75 65 36 36 72 65 80 65 8 0 15 7 15
15 0 8 6 15 14 15 8 0 16 5 18 10 2 6 13 12 26 13 12 0 22 7 22 14 0 7 11 13
25 13 14 0 25 4 25 9 0 5 11 12 25 15 14 4 25 11 25 16 0 6 18 10 39 10 22 0
42 4 45 9 3 5 15 7 25 4 10 -3 22 0 25 6 9 14 73 15 78 1 1 -5 31 -13 66 -16
42 -5 62 -11 62 -20 0 -8 11 -14 25 -14 14 0 25 -4 25 -10 0 -5 9 -10 20 -10
11 0 23 -7 26 -15 4 -8 12 -15 20 -15 8 0 14 -4 14 -9 0 -5 10 -13 23 -17 12
-4 29 -15 38 -25 9 -11 21 -19 28 -19 6 0 11 -7 11 -15 0 -8 5 -15 10 -15 6 0
10 -7 10 -15 0 -8 7 -15 15 -15 8 0 15 -7 15 -16 0 -8 4 -13 9 -10 5 3 12 -5
15 -19 4 -14 11 -25 16 -25 6 0 10 -5 10 -11 0 -6 14 -24 30 -41 17 -16 30
-36 30 -44 0 -8 5 -14 10 -14 6 0 10 -7 10 -16 0 -8 4 -13 9 -10 5 3 12 -5 15
-19 4 -14 11 -25 16 -25 6 0 10 -11 10 -25 0 -14 4 -25 9 -25 5 0 12 -11 15
-25 4 -14 11 -25 16 -25 6 0 10 -9 10 -21 0 -11 5 -17 10 -14 9 5 15 -15 11
-38 -1 -4 6 -10 14 -13 8 -4 15 -17 15 -30 0 -13 6 -24 13 -24 8 0 7 -4 -3
-10 -13 -8 -12 -10 3 -10 11 0 17 -8 17 -25 0 -14 4 -25 9 -25 5 0 12 -13 16
-30 4 -16 11 -30 16 -30 5 0 9 -11 9 -25 0 -14 5 -25 10 -25 6 0 10 -11 10
-24 0 -14 7 -31 15 -40 8 -8 15 -31 15 -50 0 -20 4 -36 10 -36 5 0 13 -18 16
-40 4 -22 10 -40 15 -40 5 0 9 -16 9 -35 0 -19 4 -35 9 -35 5 0 12 -18 16 -40
4 -22 11 -40 16 -40 5 0 9 -10 9 -22 0 -13 7 -36 15 -52 8 -15 15 -46 15 -67
0 -22 4 -39 9 -39 5 0 11 -18 15 -40 6 -36 14 -45 39 -41 4 0 7 -6 7 -14 0 -8
7 -15 15 -15 8 0 15 -4 15 -10 0 -5 11 -10 25 -10 16 0 25 -6 25 -15 0 -9 9
-15 25 -15 14 0 25 -4 25 -9 0 -5 12 -12 27 -16 21 -5 24 -8 12 -16 -10 -6 -7
-9 13 -9 15 0 33 -7 42 -15 8 -8 25 -15 38 -15 18 0 20 -2 8 -10 -11 -7 -7
-10 17 -10 17 0 38 -7 47 -15 8 -8 24 -15 35 -15 12 0 21 -4 21 -10 0 -5 11
-10 25 -10 16 0 25 -6 25 -15 0 -8 3 -14 8 -14 34 6 72 -3 72 -16 0 -9 9 -15
25 -15 14 0 25 -4 25 -10 0 -5 10 -10 23 -10 13 0 32 -7 43 -15 10 -8 29 -15
42 -15 12 0 22 -4 22 -10 0 -5 10 -10 23 -10 13 0 32 -7 43 -15 10 -8 29 -15
42 -15 12 0 22 -4 22 -10 0 -5 15 -10 34 -10 21 0 36 -6 40 -15 3 -9 19 -15
41 -15 24 0 35 -4 35 -15 0 -9 9 -15 25 -15 14 0 25 -4 25 -10 0 -5 10 -10 23
-10 13 0 32 -7 43 -15 10 -8 29 -15 42 -15 12 0 22 -4 22 -10 0 -5 11 -10 24
-10 14 0 31 -7 40 -15 8 -8 26 -15 41 -15 15 0 24 -4 20 -10 -4 -6 5 -10 20
-10 14 0 28 -7 31 -15 4 -8 17 -15 30 -15 13 0 24 -4 24 -10 0 -5 11 -12 25
-16 14 -3 25 -10 25 -15 0 -5 11 -9 25 -9 14 0 25 -4 25 -10 0 -5 11 -12 25
-16 14 -3 25 -10 25 -15 0 -5 11 -9 25 -9 14 0 28 -7 31 -15 4 -8 14 -15 24
-15 10 0 20 -7 24 -15 3 -8 15 -15 26 -15 11 0 20 -4 20 -9 0 -5 11 -12 25
-15 14 -4 25 -11 25 -16 0 -6 14 -10 30 -10 17 0 30 -4 30 -10 0 -5 7 -10 15
-10 8 0 15 -4 15 -10 0 -5 11 -12 25 -16 14 -3 25 -10 25 -15 0 -5 9 -9 21 -9
11 0 27 -7 35 -15 9 -8 27 -15 42 -15 19 0 23 -3 14 -9 -11 -7 -10 -10 3 -15
9 -3 25 -6 36 -6 10 0 19 -4 19 -9 0 -5 11 -12 25 -15 14 -4 25 -11 25 -16 0
-6 11 -10 25 -10 14 0 25 -4 25 -10 0 -5 9 -10 19 -10 11 0 26 -7 35 -15 8 -8
24 -15 35 -15 12 0 21 -4 21 -10 0 -5 11 -10 24 -10 14 0 31 -7 39 -15 8 -7
26 -17 41 -21 14 -3 26 -10 26 -15 0 -5 11 -9 25 -9 14 0 25 -4 25 -9 0 -5 18
-11 40 -15 22 -3 40 -11 40 -16 0 -6 16 -10 35 -10 19 0 35 -4 35 -10 0 -5 10
-10 23 -10 12 0 31 -7 41 -15 11 -8 28 -15 39 -15 10 0 25 -7 33 -15 9 -8 29
-15 45 -15 16 0 29 -4 29 -10 0 -5 18 -10 39 -10 22 0 46 -7 55 -15 9 -9 33
-15 60 -15 25 0 46 -4 46 -10 0 -5 16 -10 35 -10 20 0 52 -7 72 -15 19 -8 63
-15 97 -15 43 0 57 -3 46 -10 -11 -7 -3 -10 30 -11 25 0 115 -3 200 -5 177 -4
348 5 328 17 -8 5 11 9 47 9 37 0 68 6 79 15 11 8 30 15 43 15 13 0 23 5 23
10 0 6 7 10 15 10 8 0 15 7 15 16 0 8 4 13 9 10 10 -6 21 26 21 62 0 12 5 22
10 22 6 0 10 16 10 35 0 19 4 35 10 35 5 0 13 18 16 40 4 22 10 40 15 40 5 0
9 15 9 34 0 19 6 36 13 39 7 2 14 20 15 38 1 18 7 36 11 39 5 3 11 21 12 40 2
19 9 41 16 48 7 7 13 22 13 33 0 11 4 18 9 14 6 -3 11 14 13 37 2 28 7 42 16
41 8 -2 12 10 12 37 0 22 4 40 10 40 5 0 13 18 16 40 4 22 10 40 15 40 5 0 9
16 9 35 0 19 4 35 10 35 5 0 13 18 16 40 4 22 10 40 15 40 5 0 9 16 9 36 0 19
7 42 15 50 8 9 15 29 15 45 0 16 5 29 10 29 6 0 10 16 10 35 0 19 4 35 10 35
5 0 13 18 16 40 4 22 10 40 15 40 4 0 11 16 15 35 3 19 10 35 15 35 5 0 9 15
9 34 0 18 6 38 13 44 7 6 14 26 15 44 2 18 7 35 12 38 5 3 10 22 12 43 1 20 8
39 15 41 7 3 13 17 13 31 0 15 4 24 10 20 6 -4 10 10 10 34 0 23 4 41 10 41 5
0 13 18 16 40 4 22 10 40 15 40 5 0 9 16 9 35 0 19 4 35 10 35 5 0 13 18 16
40 4 22 10 40 15 40 5 0 12 18 15 40 4 22 10 40 15 40 5 0 9 16 9 36 0 19 7
42 15 50 8 9 15 26 15 40 0 13 5 24 10 24 6 0 10 18 10 40 0 22 4 40 10 40 5
0 13 18 16 40 4 22 10 40 15 40 5 0 9 13 9 29 0 16 6 33 13 39 7 6 14 26 15
44 2 18 7 35 12 36 6 2 10 16 10 32 0 16 7 35 15 44 8 8 15 24 15 36 0 12 7
28 15 36 12 12 15 45 15 162 0 81 -5 165 -11 187 -6 22 -13 55 -16 73 -3 17
-11 32 -18 32 -10 0 -14 38 -15 173 -1 174 4 222 21 195 5 -8 9 18 9 64 0 44
4 78 10 80 6 2 13 36 17 75 3 40 10 70 14 67 5 -3 9 22 9 55 0 32 4 61 10 63
5 2 13 31 16 66 4 34 11 62 15 62 5 0 9 22 9 48 0 26 5 53 11 59 6 6 13 38 16
72 3 33 10 58 14 55 5 -3 9 17 9 44 0 27 7 66 16 87 15 36 16 102 2 98 -5 -2
-41 -3 -80 -4 -49 0 -66 -3 -53 -9 13 -5 -19 -9 -90 -12 -60 -2 -121 -8 -135
-12 -14 -5 -81 -11 -150 -14 -81 -4 -114 -8 -95 -13 17 -4 -23 -7 -97 -8 -79
-1 -129 -5 -134 -12 -3 -6 -15 -9 -25 -6 -10 3 -22 1 -25 -4 -3 -5 -58 -9
-122 -10 -65 0 -108 -4 -97 -8 14 -6 7 -9 -29 -14 -87 -12 -166 -9 -166 7 0 8
-4 16 -10 18 -5 2 -11 14 -13 27 -2 14 -9 27 -15 29 -7 2 -12 17 -12 33 0 17
-4 28 -9 25 -5 -3 -12 10 -15 29 -4 19 -11 35 -16 35 -6 0 -10 11 -10 25 0 14
-4 25 -9 25 -5 0 -11 12 -13 28 -2 15 -8 26 -15 24 -8 -1 -13 9 -13 27 0 16
-7 36 -15 45 -8 8 -15 24 -15 35 0 12 -4 21 -9 21 -5 0 -12 13 -16 30 -4 17
-11 30 -16 30 -5 0 -9 11 -9 25 0 14 -4 25 -10 25 -5 0 -10 11 -10 24 0 14 -7
31 -15 40 -8 8 -15 24 -15 35 0 12 -4 21 -10 21 -5 0 -10 9 -10 19 0 11 -7 26
-15 35 -8 8 -15 24 -15 35 0 12 -6 21 -12 21 -9 0 -8 4 2 10 13 8 12 10 -2 10
-13 0 -18 8 -18 30 0 17 -4 30 -10 30 -5 0 -12 11 -16 25 -3 14 -10 25 -15 25
-5 0 -9 11 -9 25 0 14 -4 25 -10 25 -5 0 -10 11 -10 24 0 14 -7 31 -15 40 -8
8 -15 26 -15 40 0 14 -4 26 -9 26 -5 0 -12 11 -15 25 -4 14 -11 25 -16 25 -6
0 -10 14 -10 30 0 17 -4 30 -9 30 -5 0 -12 16 -15 35 -4 19 -11 35 -16 35 -5
0 -12 11 -16 25 -3 14 -10 25 -15 25 -5 0 -9 14 -9 31 0 17 -4 28 -10 24 -6
-4 -10 5 -10 19 0 14 5 26 10 26 6 0 10 30 10 69 0 38 4 71 10 73 5 2 12 40
16 86 4 46 10 78 14 72 8 -14 20 48 20 108 0 26 4 41 10 37 6 -4 10 20 10 64
0 38 5 71 10 73 6 2 13 33 17 71 3 37 10 67 14 67 5 0 9 29 9 65 0 36 4 65 9
65 5 0 12 28 16 63 4 34 11 64 15 67 5 3 9 32 11 65 1 33 6 63 11 66 4 3 11
33 14 67 4 34 11 62 15 62 5 0 9 25 9 55 0 42 3 55 15 55 12 0 15 14 15 64 0
37 5 66 11 68 6 2 13 32 16 66 3 34 10 62 14 62 5 0 9 27 9 59 0 33 4 61 10
63 5 2 13 31 16 66 4 34 11 62 15 62 5 0 9 24 9 54 0 30 5 56 10 58 6 2 14 30
17 63 3 33 9 62 14 65 4 3 8 30 10 60 1 30 6 58 11 61 4 3 11 33 14 68 4 34
10 57 14 51 8 -13 20 47 20 105 0 30 3 36 10 25 7 -11 10 3 10 47 0 34 4 63
10 65 5 2 13 31 16 66 4 34 11 62 15 62 5 0 9 24 9 54 0 30 5 56 10 58 6 2 14
36 17 76 4 45 9 68 14 60 5 -8 9 14 9 54 0 38 5 68 11 70 6 2 13 32 16 66 3
34 10 62 14 62 5 0 9 27 9 60 0 47 3 60 15 60 12 0 15 14 15 64 0 36 5 66 10
68 6 2 13 36 17 76 3 39 10 72 14 72 5 0 9 25 9 55 0 30 4 55 9 55 5 0 13 36
17 80 3 44 11 80 15 80 5 0 9 29 9 64 0 35 4 66 10 68 5 2 12 40 16 86 4 45
11 82 15 82 5 0 9 29 9 65 0 36 4 65 9 65 5 0 12 14 16 30 4 17 11 30 17 30
11 0 38 25 38 35 0 10 28 35 39 35 6 0 11 5 11 11 0 14 55 69 69 69 6 0 10 6
9 13 -2 6 3 11 10 9 6 -1 12 5 12 13 0 8 7 15 15 15 8 0 15 4 15 9 0 5 11 12
25 15 14 4 25 11 25 16 0 6 7 10 15 10 8 0 15 4 15 9 0 5 9 13 20 16 11 4 18
10 15 15 -3 5 4 11 15 15 11 3 20 11 20 16 0 5 7 9 15 9 8 0 15 6 16 13 0 9 2
9 6 0 3 -8 12 -4 27 12 13 14 33 25 45 25 11 0 21 4 21 10 0 5 11 12 25 16 14
3 25 10 25 15 0 5 7 9 15 9 8 0 15 7 15 15 0 9 9 15 25 15 14 0 25 4 25 9 0 5
11 12 25 15 14 4 25 11 25 16 0 6 11 10 25 10 14 0 25 4 25 10 0 5 11 12 25
16 14 3 25 10 25 15 0 5 7 9 15 9 8 0 15 4 15 10 0 5 11 12 25 16 14 3 25 10
25 14 0 4 11 11 25 14 14 4 25 11 25 16 0 6 11 10 25 10 14 0 25 4 25 9 0 5
11 12 25 15 14 4 25 11 25 16 0 6 11 10 24 10 13 0 27 7 30 16 3 8 10 13 15
10 5 -4 16 1 24 9 9 8 20 15 26 15 6 0 11 5 11 10 0 6 6 10 14 10 8 0 21 6 28
14 8 7 24 17 36 20 12 4 22 12 22 17 0 5 7 9 15 9 8 0 15 4 15 9 0 5 11 12 25
15 14 4 25 11 25 16 0 6 7 10 15 10 8 0 15 4 15 9 0 5 10 13 22 17 26 8 48 28
48 43 0 6 7 11 15 11 8 0 15 6 16 13 0 9 2 9 6 0 3 -8 12 -4 27 12 13 14 28
25 35 25 17 0 13 14 -9 33 -11 9 -31 17 -45 17 -14 0 -25 4 -25 10 0 5 -11 12
-25 16 -14 3 -23 10 -20 14 3 4 -6 11 -20 14 -14 4 -25 11 -25 16 0 6 -7 10
-15 10 -8 0 -15 6 -15 13 0 8 -4 7 -10 -3 -8 -13 -10 -12 -10 3 0 9 -7 17 -15
17 -8 0 -15 5 -15 10 0 6 -7 10 -15 10 -8 0 -15 4 -15 9 0 5 -10 13 -22 17
-13 4 -30 15 -38 24 -8 9 -26 21 -39 25 -17 5 -20 9 -11 15 9 6 6 10 -11 15
-13 4 -32 17 -42 29 -10 12 -22 21 -27 21 -5 0 -17 10 -28 22 -10 13 -22 20
-26 16 -3 -3 -6 -1 -6 5 0 7 -5 12 -11 12 -14 0 -39 25 -39 39 0 6 -7 11 -15
11 -8 0 -15 4 -15 10 0 5 -11 12 -25 16 -14 3 -25 10 -25 15 0 5 -7 9 -15 9
-8 0 -15 4 -15 10 0 5 -11 12 -25 16 -14 3 -22 10 -19 15 3 5 -2 9 -10 9 -9 0
-16 5 -16 10 0 6 -6 10 -14 10 -8 0 -21 6 -28 14 -8 7 -24 17 -36 20 -12 4
-22 12 -22 17 0 5 -13 9 -30 9 -16 0 -30 4 -30 10 0 5 -16 12 -35 16 -19 3
-35 10 -35 15 0 5 -22 9 -49 9 -27 0 -51 4 -53 10 -2 5 -38 13 -80 16 -43 4
-75 11 -72 15 3 5 -83 9 -190 9 -108 0 -196 -4 -196 -9 0 -5 -18 -11 -40 -15
-22 -3 -40 -11 -40 -16 0 -6 -13 -10 -30 -10 -16 0 -30 -4 -30 -9 0 -5 -16
-12 -35 -15 -19 -4 -35 -11 -35 -16 0 -6 -11 -10 -24 -10 -13 0 -26 -4 -28
-10 -1 -5 -13 -11 -26 -13 -13 -2 -27 -8 -30 -14 -4 -5 -18 -13 -32 -16 -31
-8 -70 -42 -70 -62 0 -8 -4 -15 -10 -15 -5 0 -10 -11 -10 -25 0 -14 -4 -25 -9
-25 -5 0 -12 -13 -16 -30 -4 -16 -11 -30 -16 -30 -5 0 -9 -9 -9 -21 0 -11 -7
-27 -15 -35 -8 -9 -15 -26 -15 -40 0 -13 -4 -24 -9 -24 -5 0 -12 -11 -15 -25
-4 -14 -11 -25 -16 -25 -6 0 -10 -13 -10 -30 0 -16 -4 -30 -10 -30 -5 0 -10
-9 -10 -19 0 -11 -5 -23 -10 -26 -6 -4 -8 -11 -5 -16 4 -5 1 -9 -4 -9 -6 0
-11 -11 -11 -25 0 -14 -4 -25 -9 -25 -5 0 -12 -13 -16 -30 -4 -16 -11 -30 -16
-30 -5 0 -9 -11 -9 -25 0 -14 -4 -25 -10 -25 -5 0 -10 -11 -10 -24 0 -14 -6
-31 -14 -38 -7 -8 -17 -24 -20 -36 -4 -12 -12 -22 -17 -22 -5 0 -9 -13 -9 -30
0 -16 -4 -30 -10 -30 -5 0 -12 -16 -16 -35 -3 -19 -10 -35 -15 -35 -5 0 -9
-11 -9 -25 0 -14 -4 -25 -10 -25 -5 0 -10 -9 -10 -19 0 -11 -7 -26 -15 -35 -8
-8 -15 -24 -15 -35 0 -12 -4 -21 -9 -21 -5 0 -11 -18 -15 -40 -3 -22 -11 -40
-16 -40 -6 0 -10 -11 -10 -25 0 -16 -6 -25 -15 -25 -9 0 -15 -9 -15 -24 0 -13
-4 -26 -10 -28 -5 -1 -11 -14 -13 -27 -2 -14 -9 -27 -15 -29 -7 -2 -12 -19
-12 -38 0 -19 -4 -34 -10 -34 -5 0 -12 -11 -16 -25 -3 -14 -10 -25 -15 -25 -5
0 -9 -13 -9 -30 0 -16 -4 -30 -10 -30 -5 0 -10 -9 -10 -19 0 -11 -5 -23 -10
-26 -6 -4 -8 -11 -5 -16 4 -5 1 -9 -4 -9 -6 0 -11 -11 -11 -25 0 -14 -4 -25
-9 -25 -5 0 -12 -14 -16 -30 -4 -17 -11 -28 -16 -24 -8 5 -14 -17 -10 -39 1
-4 -6 -10 -14 -13 -9 -4 -15 -19 -15 -40 0 -19 -4 -34 -9 -34 -5 0 -12 -11
-15 -25 -4 -14 -11 -25 -16 -25 -6 0 -10 -13 -10 -30 0 -16 -4 -30 -10 -30 -5
0 -12 -11 -16 -25 -3 -14 -11 -25 -18 -25 -6 0 -4 -5 4 -10 10 -6 11 -10 3
-10 -7 0 -13 -11 -13 -25 0 -14 -4 -25 -9 -25 -5 0 -12 -13 -16 -30 -4 -16
-11 -30 -16 -30 -5 0 -9 -11 -9 -24 0 -13 -4 -26 -10 -28 -8 -3 -16 -29 -19
-63 -1 -5 -6 -3 -11 5 -8 12 -10 9 -10 -12 0 -15 -7 -33 -15 -42 -8 -8 -15
-26 -15 -40 0 -14 -4 -26 -9 -26 -5 0 -12 -11 -15 -25 -4 -14 -11 -25 -16 -25
-6 0 -10 -16 -10 -35 0 -19 -4 -35 -9 -35 -5 0 -12 -13 -16 -30 -4 -16 -11
-30 -16 -30 -5 0 -9 -11 -9 -25 0 -14 -4 -25 -10 -25 -5 0 -13 -18 -16 -40 -4
-22 -10 -40 -15 -40 -5 0 -9 -11 -9 -25 0 -16 -6 -25 -15 -25 -9 0 -15 -9 -15
-25 0 -14 -4 -25 -9 -25 -5 0 -12 -13 -16 -30 -4 -16 -11 -30 -16 -30 -5 0 -9
-11 -9 -25 0 -14 -4 -25 -9 -25 -5 0 -12 -16 -15 -35 -4 -19 -11 -35 -16 -35
-6 0 -10 -13 -10 -30 0 -16 -4 -30 -10 -30 -5 0 -12 -11 -16 -25 -3 -14 -10
-25 -15 -25 -5 0 -9 -16 -9 -35 0 -19 -4 -35 -9 -35 -5 0 -12 -14 -16 -30 -4
-17 -10 -28 -15 -25 -5 3 -11 -8 -15 -25 -4 -16 -11 -30 -16 -30 -5 0 -9 -11
-9 -25 0 -14 -6 -25 -12 -25 -9 0 -8 -4 2 -10 8 -5 10 -10 4 -10 -7 0 -15 -11
-18 -25 -4 -14 -11 -25 -16 -25 -6 0 -10 -13 -10 -30 0 -16 -4 -30 -10 -30 -5
0 -12 -11 -16 -25 -3 -14 -10 -25 -15 -25 -5 0 -9 -16 -9 -35 0 -19 -4 -35 -9
-35 -5 0 -12 -11 -15 -25 -4 -14 -11 -25 -16 -25 -6 0 -10 -13 -10 -30 0 -20
-5 -30 -15 -30 -11 0 -15 -11 -15 -37 0 -28 -3 -34 -10 -23 -9 13 -10 13 -11
0 -2 -34 -8 -55 -18 -58 -6 -2 -11 -17 -11 -33 0 -16 -4 -29 -9 -29 -5 0 -12
-11 -15 -25 -4 -14 -11 -25 -16 -25 -6 0 -10 -16 -10 -36 0 -19 -4 -33 -9 -30
-5 3 -12 -10 -15 -29 -4 -19 -11 -35 -16 -35 -6 0 -10 -11 -10 -25 0 -14 -4
-25 -9 -25 -5 0 -12 -14 -16 -30 -4 -17 -10 -28 -15 -25 -4 2 -10 -13 -14 -35
-3 -22 -11 -40 -16 -40 -6 0 -10 -11 -10 -25 0 -14 -4 -25 -9 -25 -5 0 -12
-13 -16 -30 -4 -16 -11 -30 -16 -30 -5 0 -9 -11 -9 -25 0 -14 -4 -25 -9 -25
-5 0 -12 -16 -15 -35 -4 -19 -11 -35 -16 -35 -6 0 -10 -13 -10 -30 0 -16 -4
-30 -10 -30 -5 0 -12 -11 -16 -25 -3 -14 -10 -25 -15 -25 -5 0 -9 -11 -9 -25
0 -17 -6 -25 -17 -25 -15 0 -16 -2 -3 -10 10 -6 11 -10 3 -10 -7 0 -13 -11
-13 -25 0 -14 -4 -25 -9 -25 -5 0 -12 -13 -16 -30 -4 -17 -11 -30 -16 -30 -5
0 -9 -11 -9 -25 0 -14 -6 -25 -12 -25 -10 0 -10 -2 0 -9 11 -7 10 -9 -3 -15
-9 -3 -14 -10 -11 -15 4 -5 -1 -16 -9 -24 -8 -9 -15 -25 -15 -36 0 -12 -4 -21
-9 -21 -5 0 -12 -13 -16 -30 -4 -16 -11 -30 -16 -30 -5 0 -9 -13 -9 -30 0 -16
-4 -30 -9 -30 -5 0 -12 -16 -15 -35 -4 -20 -11 -33 -16 -30 -4 3 -11 -8 -15
-25 -4 -16 -11 -30 -16 -30 -5 0 -9 -11 -9 -25 0 -14 -4 -25 -10 -25 -5 0 -12
-16 -16 -35 -3 -19 -10 -35 -15 -35 -5 0 -9 -13 -9 -30 0 -16 -4 -30 -9 -30
-5 0 -12 -11 -15 -25 -4 -14 -11 -25 -16 -25 -6 0 -10 -13 -10 -30 0 -16 -4
-30 -9 -30 -5 0 -12 -16 -15 -35 -4 -19 -11 -35 -16 -35 -6 0 -10 -11 -10 -25
0 -16 -6 -25 -15 -25 -9 0 -15 -9 -15 -25 0 -14 -4 -25 -10 -25 -5 0 -10 -11
-10 -25 0 -14 -7 -28 -16 -32 -13 -5 -13 -7 -2 -14 10 -7 10 -9 1 -9 -7 0 -13
-11 -13 -25 0 -14 -4 -25 -9 -25 -5 0 -12 -13 -16 -30 -4 -16 -11 -30 -16 -30
-5 0 -9 -11 -9 -25 0 -14 -4 -25 -10 -25 -5 0 -12 -16 -16 -35 -3 -19 -10 -35
-15 -35 -5 0 -9 -14 -9 -31 0 -16 -4 -28 -9 -25 -5 4 -12 -7 -16 -24 -4 -16
-11 -30 -16 -30 -5 0 -9 -11 -9 -25 0 -17 -6 -25 -17 -25 -15 0 -16 -2 -3 -10
10 -6 11 -10 3 -10 -7 0 -13 -11 -13 -25 0 -14 -4 -25 -9 -25 -5 0 -12 -13
-16 -30 -4 -16 -11 -30 -16 -30 -5 0 -9 -11 -9 -25 0 -14 -4 -25 -10 -25 -5 0
-12 -16 -16 -35 -3 -19 -10 -35 -15 -35 -5 0 -9 -11 -9 -25 0 -14 -4 -25 -9
-25 -5 0 -12 -13 -16 -30 -4 -16 -11 -30 -16 -30 -5 0 -9 -12 -9 -26 0 -14 -7
-32 -15 -40 -8 -9 -15 -27 -15 -40 0 -14 -4 -23 -9 -20 -5 4 -12 -7 -16 -24
-4 -16 -11 -30 -16 -30 -5 0 -9 -11 -9 -25 0 -14 -4 -25 -10 -25 -5 0 -12 -16
-16 -35 -3 -19 -10 -35 -15 -35 -5 0 -9 -13 -9 -30 0 -16 -4 -30 -10 -30 -5 0
-12 -11 -16 -25 -3 -14 -10 -25 -15 -25 -5 0 -9 -11 -9 -25 0 -14 -4 -25 -10
-25 -5 0 -13 -18 -16 -40 -4 -22 -10 -40 -15 -40 -5 0 -9 -11 -9 -25 0 -16 -6
-25 -15 -25 -9 0 -15 -9 -15 -25 0 -14 -4 -25 -9 -25 -5 0 -12 -13 -16 -30 -4
-16 -12 -30 -18 -30 -7 0 -6 -4 3 -10 10 -6 11 -10 3 -10 -7 0 -13 -9 -13 -21
0 -11 -7 -27 -15 -35 -8 -9 -15 -24 -15 -35 0 -10 -4 -19 -10 -19 -5 0 -10
-11 -10 -25 0 -14 -4 -25 -10 -25 -5 0 -12 -11 -16 -25 -3 -14 -11 -25 -18
-25 -6 0 -4 -5 4 -10 10 -6 11 -10 3 -10 -7 0 -13 -11 -13 -25 0 -14 -4 -25
-9 -25 -5 0 -12 -13 -16 -30 -4 -17 -11 -30 -16 -30 -5 0 -11 -11 -15 -25 -3
-14 -10 -25 -15 -25 -5 0 -9 -16 -9 -35 0 -19 -4 -35 -9 -35 -5 0 -12 -13 -16
-30 -4 -17 -11 -30 -16 -30 -5 0 -9 -11 -9 -25 0 -14 -4 -25 -10 -25 -5 0 -12
-16 -16 -35 -3 -19 -10 -35 -15 -35 -5 0 -9 -11 -9 -25 0 -14 -4 -25 -9 -25
-5 0 -12 -14 -16 -30 -4 -17 -11 -30 -16 -30 -5 0 -9 -11 -9 -25 0 -16 -6 -25
-15 -25 -10 0 -15 -11 -15 -35 0 -19 -4 -35 -9 -35 -5 0 -12 -14 -16 -30 -4
-17 -11 -30 -16 -30 -5 0 -9 -7 -9 -15 0 -8 -6 -15 -12 -15 -9 0 -8 -4 2 -10
10 -7 -9 -10 -62 -10 -46 0 -78 4 -78 10 0 6 -11 10 -25 10 -13 0 -28 8 -34
18 -5 9 -12 16 -15 15 -17 -8 -36 -1 -36 12 0 8 -4 15 -10 15 -5 0 -10 6 -10
14 0 8 -5 16 -12 18 -15 5 -15 111 1 116 6 2 11 14 11 27 0 13 4 25 9 27 6 2
12 16 15 32 3 16 10 34 16 40 5 5 10 20 10 32 0 12 4 24 9 26 6 2 12 16 15 32
3 16 10 34 16 40 5 5 10 20 10 33 0 13 4 23 10 23 5 0 12 16 16 35 3 19 10 33
14 30 4 -3 11 11 14 30 4 19 11 35 16 35 6 0 10 14 10 30 0 17 4 30 9 30 5 0
12 16 15 35 4 19 11 35 16 35 6 0 10 11 10 25 0 14 4 25 9 25 5 0 11 18 15 40
3 22 11 40 16 40 6 0 10 11 10 25 0 14 4 25 9 25 5 0 12 18 16 40 4 22 11 40
16 40 5 0 9 11 9 25 0 16 6 25 15 25 10 0 15 11 15 35 0 19 4 35 9 35 5 0 12
14 16 30 4 17 11 30 16 30 5 0 9 11 9 25 0 14 5 25 10 25 6 0 10 11 10 24 0
14 7 31 15 40 8 8 15 26 15 40 0 14 5 26 10 26 6 0 10 11 10 24 0 14 7 31 15
40 8 8 15 26 15 40 0 14 5 26 10 26 6 0 10 11 10 24 0 14 7 31 15 39 7 8 17
26 21 41 3 14 10 26 15 26 5 0 9 16 9 35 0 19 4 35 9 35 5 0 12 14 16 30 4 17
11 30 16 30 5 0 9 16 9 35 0 19 4 35 9 35 5 0 12 14 16 30 4 17 11 30 16 30 5
0 9 11 9 25 0 14 5 25 10 25 6 0 10 11 10 24 0 14 7 31 15 40 8 8 15 26 15 39
0 14 7 27 15 31 9 3 15 18 15 36 0 16 4 30 9 30 5 0 12 14 16 30 4 17 11 30
16 30 5 0 9 16 9 35 0 19 4 35 9 35 5 0 12 14 16 30 4 17 11 30 16 30 5 0 9
16 9 35 0 19 4 35 10 35 5 0 12 11 16 25 3 14 10 25 15 25 5 0 9 18 9 40 0 22
4 40 10 40 5 0 12 11 16 25 3 14 10 25 15 25 5 0 12 18 15 40 4 22 10 40 15
40 5 0 9 11 9 25 0 14 4 25 10 25 5 0 12 16 16 35 3 19 10 35 15 35 5 0 9 14
9 30 0 17 4 30 10 30 5 0 12 16 16 35 3 19 10 35 15 35 5 0 9 14 9 30 0 17 4
30 9 30 5 0 12 11 15 25 4 14 11 25 16 25 6 0 10 16 10 35 0 24 5 35 15 35 10
0 15 10 15 30 0 17 4 30 10 30 5 0 12 16 16 35 3 19 10 35 15 35 5 0 9 14 9
30 0 17 4 30 10 30 5 0 12 16 16 35 3 19 10 35 15 35 5 0 9 14 9 31 0 17 4 28
10 24 5 -3 12 12 16 35 4 22 10 40 15 40 5 0 9 11 9 25 0 14 4 25 9 25 5 0 12
14 16 30 4 17 12 30 18 30 7 0 6 4 -3 10 -10 6 -11 10 -2 10 6 0 12 11 12 25
0 16 6 25 15 25 10 0 15 10 15 30 0 17 4 30 9 30 5 0 12 16 15 35 4 19 11 35
16 35 6 0 10 13 10 29 0 16 5 31 10 33 6 2 13 17 16 33 3 17 9 32 15 33 5 2 9
16 9 32 0 16 5 30 10 32 6 2 13 17 16 33 3 17 9 32 15 33 5 2 9 17 9 33 0 17
4 28 10 24 5 -3 13 12 16 35 4 24 10 37 14 30 4 -7 10 3 14 24 4 20 11 36 16
36 6 0 10 14 10 30 0 17 4 30 9 30 5 0 12 16 15 35 4 19 11 35 16 35 6 0 10
11 10 25 0 14 4 25 9 25 5 0 11 18 15 40 3 22 11 40 16 40 6 0 10 11 10 24 0
13 4 26 9 28 6 2 13 19 16 38 3 19 10 37 16 38 5 2 9 15 9 28 0 15 6 24 15 24
10 0 15 11 15 35 0 19 4 35 9 35 5 0 12 14 16 30 4 17 11 30 16 30 5 0 9 16 9
35 0 19 4 35 9 35 5 0 12 14 16 30 4 17 11 30 16 30 5 0 9 11 9 25 0 14 4 25
9 25 5 0 11 18 15 40 4 23 11 38 16 35 6 -4 10 7 10 24 0 17 5 31 10 31 6 0
10 11 10 24 0 14 7 31 15 39 7 8 17 26 21 41 3 14 10 26 15 26 5 0 9 16 9 35
0 19 4 35 9 35 5 0 12 14 16 30 4 17 11 30 16 30 5 0 9 16 9 35 0 19 4 35 9
35 5 0 12 14 16 30 4 17 11 30 16 30 5 0 9 16 9 35 0 19 4 35 9 35 5 0 12 14
16 30 4 17 11 30 16 30 5 0 9 11 9 24 0 14 7 31 15 40 8 8 15 24 15 35 0 12 4
21 10 21 5 0 13 18 16 41 5 27 10 36 15 27 6 -8 9 0 9 25 0 20 4 37 10 37 5 0
13 18 16 41 5 27 10 36 15 27 6 -8 9 0 9 25 0 20 4 37 9 37 5 0 12 14 16 30 4
17 11 30 16 30 5 0 9 16 9 35 0 19 4 35 10 35 5 0 12 11 16 25 3 14 10 25 15
25 5 0 12 18 15 40 4 22 10 40 15 40 5 0 9 11 9 25 0 14 4 25 10 25 5 0 13 18
16 40 4 22 10 40 15 40 5 0 9 11 9 25 0 14 4 25 10 25 5 0 12 16 16 35 3 19
10 35 15 35 5 0 9 14 9 30 0 17 4 30 10 30 5 0 12 16 16 35 3 19 10 35 15 35
5 0 9 11 9 25 0 16 6 25 15 25 10 0 15 10 15 30 0 17 4 30 10 30 5 0 12 16 16
35 3 19 10 35 15 35 5 0 9 14 9 30 0 17 4 30 10 30 5 0 12 16 16 35 3 19 10
35 15 35 5 0 9 14 9 30 0 17 4 30 10 30 5 0 12 16 16 35 3 19 10 35 15 35 5 0
9 12 9 26 0 14 7 32 15 40 8 9 15 26 15 39 0 13 5 25 12 27 6 2 13 15 15 29 2
13 8 26 13 27 6 2 10 15 10 28 0 13 4 24 9 24 5 0 11 18 15 40 3 22 11 40 16
40 6 0 10 9 10 21 0 11 7 27 15 35 8 9 15 26 15 40 0 13 5 24 10 24 6 0 10 12
10 26 0 14 7 32 15 40 8 9 15 26 15 40 0 13 5 24 10 24 6 0 10 12 10 26 0 14
7 32 15 40 8 9 15 26 15 40 0 13 4 24 9 24 5 0 13 10 17 23 4 12 10 24 15 27
4 3 9 22 11 43 1 20 6 37 10 37 4 0 10 11 14 25 3 14 10 25 15 25 5 0 9 14 9
30 0 17 4 30 9 30 5 0 12 16 15 35 4 19 11 35 16 35 6 0 10 11 10 25 0 23 -3
25 -50 25 -39 0 -50 -4 -50 -16 0 -8 -5 -12 -10 -9 -6 3 -13 -1 -16 -9 -4 -11
-19 -16 -44 -16 -21 0 -40 -5 -42 -10 -2 -6 -40 -13 -86 -15 -84 -5 -90 -2
-83 38 1 4 -6 10 -14 13 -9 4 -15 19 -15 40 0 19 -4 34 -9 34 -5 0 -11 8 -15
18 -9 27 -28 54 -63 89 -18 17 -33 36 -33 42 0 5 -7 16 -14 24 -8 8 -16 35
-17 61 -2 30 -7 46 -16 46 -10 0 -13 34 -13 155 0 131 2 155 15 155 10 0 15
10 15 30 0 17 5 30 11 30 6 0 17 7 25 15 9 8 26 15 40 15 13 0 24 5 24 10 0 6
18 10 40 10 22 0 40 4 40 10 0 5 16 12 35 16 19 3 35 10 35 15 0 5 7 9 15 9 8
0 15 4 15 9 0 5 10 13 22 17 12 3 28 13 36 20 7 8 21 14 30 14 15 0 15 2 2 10
-12 8 -11 10 7 10 12 0 26 7 31 16 5 9 12 15 15 15 4 -1 15 -1 25 -1 14 0 15
2 2 10 -13 8 -12 10 3 10 10 0 28 11 41 25 13 14 26 25 30 25 9 0 36 26 36 34
0 10 59 66 70 66 5 0 10 7 10 15 0 8 5 15 11 15 14 0 39 25 39 39 0 10 21 16
43 12 4 0 7 4 7 10 0 14 55 69 69 69 6 0 11 7 11 16 0 8 5 12 10 9 6 -3 13 1
16 9 3 9 14 16 24 16 10 0 20 7 24 15 3 8 16 15 28 15 18 0 20 2 9 9 -11 7 -5
11 22 16 44 9 147 -3 147 -16 0 -5 10 -9 23 -9 13 0 32 -7 43 -15 10 -8 29
-15 42 -15 12 0 22 -4 22 -10 0 -5 11 -10 25 -10 16 0 25 -6 25 -15 0 -8 9
-15 20 -15 12 0 30 -9 42 -20 12 -10 25 -17 30 -14 4 3 8 0 8 -5 0 -6 7 -11
15 -11 8 0 15 -7 15 -15 0 -8 7 -15 15 -15 8 0 15 -4 15 -10 0 -5 8 -10 19
-10 10 0 26 -11 37 -24 10 -14 28 -27 41 -31 13 -3 23 -10 23 -15 0 -6 7 -10
15 -10 8 0 15 -4 15 -10 0 -5 11 -12 25 -16 14 -3 22 -10 19 -15 -3 -5 4 -9
15 -9 11 0 26 -7 35 -15 8 -8 19 -15 25 -15 6 0 11 -4 11 -10 0 -5 9 -10 20
-10 11 0 23 -7 26 -15 4 -8 17 -15 30 -15 13 0 24 -4 24 -10 0 -5 11 -10 24
-10 14 0 31 -7 40 -15 8 -8 26 -15 40 -15 14 0 26 -4 26 -10 0 -5 11 -10 24
-10 14 0 31 -7 40 -15 8 -8 26 -15 40 -15 13 0 31 -7 40 -15 9 -9 33 -15 60
-15 25 0 46 -4 46 -9 0 -5 25 -13 55 -16 30 -4 55 -11 55 -16 0 -5 22 -9 49
-9 27 0 51 -4 53 -9 2 -4 35 -11 73 -15 39 -4 71 -11 73 -16 2 -6 25 -10 52
-10 33 0 50 -5 54 -15 4 -11 21 -15 66 -15 33 0 60 -4 60 -9 0 -4 21 -11 47
-14 26 -3 49 -10 51 -16 2 -6 28 -11 58 -11 34 0 53 -4 49 -10 -4 -6 6 -10 24
-10 16 0 36 -7 45 -15 8 -8 31 -15 50 -15 20 0 36 -4 36 -10 0 -5 11 -10 24
-10 14 0 31 -7 39 -15 8 -7 26 -17 41 -21 14 -3 26 -10 26 -15 0 -5 16 -9 36
-9 21 0 33 -4 29 -10 -3 -5 3 -10 14 -10 11 0 26 -7 35 -15 8 -8 24 -15 35
-15 12 0 21 -4 21 -9 0 -5 14 -12 30 -16 17 -4 30 -11 30 -16 0 -5 11 -9 25
-9 14 0 25 -4 25 -9 0 -5 11 -12 25 -15 14 -4 25 -11 25 -16 0 -6 7 -10 15
-10 8 0 15 -5 15 -11 0 -5 5 -7 10 -4 6 3 10 1 10 -4 0 -6 7 -11 15 -11 8 0
15 -4 15 -10 0 -5 11 -10 24 -10 14 0 31 -7 40 -15 8 -8 24 -15 35 -15 12 0
21 -4 21 -9 0 -5 14 -12 30 -16 17 -4 30 -11 30 -16 0 -5 24 -9 54 -9 39 0 55
-4 60 -15 4 -12 31 -15 150 -15 115 0 148 3 160 15 10 10 36 15 84 15 47 0 72
4 75 13 3 9 62 12 252 12 190 0 249 -3 253 -12 2 -9 28 -13 82 -13 60 0 79 -3
84 -15 4 -11 22 -15 71 -15 36 0 65 -4 65 -9 0 -4 37 -11 83 -15 45 -4 84 -11
85 -16 2 -6 40 -10 83 -10 45 0 78 -4 75 -9 -6 -9 155 -20 187 -13 9 2 17 11
17 19 0 8 5 11 10 8 6 -3 10 0 10 8 0 18 65 88 74 80 3 -4 6 -1 6 5 0 7 7 12
15 12 8 0 15 5 15 10 0 6 9 10 21 10 11 0 27 7 35 15 9 8 29 15 45 15 16 0 29
5 29 10 0 6 23 10 50 10 28 0 50 4 50 9 0 6 21 13 47 17 26 4 53 13 61 20 7 8
20 14 28 14 8 0 14 5 14 10 0 6 5 10 11 10 14 0 69 55 69 69 0 6 3 11 8 11 23
0 54 237 36 278 -10 25 -14 57 -20 161 -3 52 -9 88 -14 82 -4 -7 -9 34 -12 90
-3 64 -9 104 -17 107 -7 2 -11 32 -11 80 0 54 -3 72 -10 62 -7 -10 -10 14 -10
78 0 52 -4 92 -10 92 -5 0 -7 7 -3 16 3 8 0 26 -6 38 -17 32 -11 410 7 428 6
6 12 29 12 50 0 21 5 38 10 38 6 0 10 16 10 35 0 19 4 35 9 35 5 0 12 14 16
30 4 17 11 30 16 30 5 0 9 11 9 25 0 16 6 25 15 25 8 0 15 9 15 20 0 11 5 20
10 20 6 0 14 8 17 18 4 9 22 32 40 49 18 18 33 37 33 42 0 6 10 15 21 22 27
14 79 66 79 79 0 6 7 10 15 10 8 0 15 5 15 10 0 6 7 10 15 10 8 0 15 5 15 11
0 5 5 7 10 4 6 -3 10 -1 10 4 0 6 7 11 15 11 8 0 15 4 15 9 0 5 8 12 18 15 32
13 62 31 62 38 0 5 11 8 25 8 16 0 25 6 25 15 0 9 9 15 21 15 22 0 49 22 49
39 0 6 -4 11 -10 11 -5 0 -10 7 -10 15 0 8 -4 15 -9 15 -5 0 -13 10 -17 23 -4
12 -10 24 -14 27 -4 3 -9 26 -12 53 -5 46 -5 47 23 47 16 0 29 4 29 8 0 10 -5
9 113 18 54 4 83 10 75 15 -7 5 26 9 80 9 54 0 92 4 92 10 0 5 10 10 23 10
112 -1 377 15 377 22 0 5 -4 6 -10 3 -6 -4 -10 15 -10 49 0 30 -4 57 -9 60
-16 10 4 256 20 256 5 0 9 -4 9 -10z m8278 -1827 c-32 -2 -86 -2 -120 0 -35 2
-9 3 57 3 66 0 94 -1 63 -3z m2445 -10500 c-13 -2 -35 -2 -50 0 -16 2 -5 4 22
4 28 0 40 -2 28 -4z m424 -525 c-2 -18 -4 -4 -4 32 0 36 2 50 4 33 2 -18 2
-48 0 -65z m-453 -8186 c3 -5 6 -587 6 -1293 l2 -1284 -243 0 -244 0 -6 50
c-4 28 -10 86 -14 130 -7 78 -8 79 -23 55 -9 -14 -48 -57 -87 -96 -117 -117
-264 -174 -451 -174 -351 0 -621 236 -731 640 -14 53 -18 104 -17 280 0 187 3
225 22 292 81 295 242 492 489 596 29 13 99 30 155 38 86 13 121 14 207 4 159
-17 240 -51 333 -138 l48 -45 0 477 0 476 274 0 c151 0 277 -4 280 -8z m-2288
-50 c89 -46 154 -154 154 -257 0 -113 -87 -229 -195 -261 -130 -37 -272 2
-342 94 -38 51 -53 98 -53 172 0 119 46 195 150 248 62 32 69 33 155 30 67 -3
101 -10 131 -26z m-3359 -65 c164 -31 333 -83 333 -103 0 -18 -52 -231 -87
-352 -21 -75 -29 -92 -42 -88 -9 2 -54 18 -101 35 -126 45 -211 56 -435 56
-178 0 -209 -3 -278 -23 -268 -77 -439 -246 -509 -504 -20 -73 -23 -105 -22
-263 0 -167 2 -187 28 -270 42 -137 89 -218 182 -311 67 -68 97 -90 175 -128
131 -63 203 -78 381 -78 171 0 245 13 253 46 3 11 4 127 3 256 l-3 235 -188 3
-187 2 2 218 3 217 453 3 452 2 0 -653 0 -654 -87 -26 c-218 -67 -495 -107
-731 -107 -199 0 -295 10 -461 50 -223 54 -376 136 -529 284 -177 171 -280
376 -328 656 -23 133 -15 419 15 540 83 335 238 568 489 739 168 114 425 204
672 235 79 10 467 -3 547 -17z m-18713 -16 c255 -56 436 -173 524 -340 34 -62
62 -180 62 -254 0 -64 -27 -176 -57 -237 -39 -81 -159 -197 -255 -246 -78 -39
-94 -54 -60 -54 34 0 177 -77 239 -128 77 -64 152 -176 183 -273 32 -96 34
-279 6 -374 -73 -246 -276 -428 -557 -499 -211 -54 -289 -61 -654 -61 -224 0
-380 5 -457 14 l-118 13 0 1208 0 1208 23 6 c23 6 254 33 342 40 28 2 192 2
365 1 279 -2 326 -5 414 -24z m7383 14 c270 -36 489 -149 591 -307 62 -96 85
-174 86 -293 0 -106 -13 -163 -62 -260 -37 -74 -152 -182 -244 -230 -78 -40
-94 -55 -59 -55 45 0 185 -84 262 -157 128 -122 181 -252 182 -438 0 -162 -44
-292 -139 -411 -133 -166 -293 -247 -609 -305 -194 -36 -755 -37 -1011 -2
l-44 6 0 1208 c0 1142 1 1208 18 1213 144 41 800 61 1029 31z m3663 -420 l0
-255 195 0 195 0 0 -205 0 -205 -195 0 -195 0 0 -359 c0 -367 5 -434 40 -506
33 -68 64 -80 213 -80 l127 1 0 -212 0 -212 -72 -18 c-108 -25 -355 -31 -438
-10 -164 42 -280 126 -339 249 -67 137 -81 267 -81 775 l0 372 -115 0 -115 0
0 205 0 205 115 0 115 0 2 193 3 192 55 13 c196 48 467 111 478 111 9 1 12
-56 12 -254z m1330 0 l0 -255 195 0 195 0 0 -205 0 -205 -195 0 -195 0 0 -373
c0 -469 8 -510 107 -558 41 -20 56 -21 159 -16 l114 5 0 -208 c0 -243 11 -221
-125 -245 -113 -19 -310 -19 -394 0 -203 48 -325 170 -383 384 -20 71 -22 107
-26 544 l-4 467 -114 0 -114 0 0 205 0 205 115 0 115 0 2 192 3 193 50 12
c109 28 471 112 483 112 9 1 12 -56 12 -254z m-10325 -240 c38 -8 107 -34 154
-57 111 -54 247 -186 303 -293 99 -193 136 -410 111 -667 l-6 -68 -570 0 -570
0 7 -47 c17 -127 142 -230 328 -269 108 -24 346 -14 498 19 63 14 123 29 132
32 13 5 19 -2 27 -32 14 -52 61 -310 61 -333 0 -15 -15 -24 -67 -39 -198 -58
-289 -72 -499 -78 -214 -7 -303 4 -454 53 -132 42 -214 90 -309 179 -174 164
-261 385 -261 665 0 508 312 895 765 949 97 12 258 5 350 -14z m2544 4 c151
-23 282 -90 382 -196 80 -85 129 -184 160 -318 21 -95 23 -130 30 -665 5 -311
10 -578 11 -595 l3 -30 -250 0 -250 0 -13 85 c-8 47 -16 87 -18 89 -2 2 -31
-21 -64 -52 -108 -101 -267 -157 -439 -157 -177 0 -318 54 -426 164 -105 106
-155 230 -155 386 0 251 135 447 386 561 135 61 374 108 552 109 l92 0 0 31
c0 89 -63 172 -151 198 -150 45 -393 13 -577 -76 -40 -20 -74 -34 -76 -32 -6
6 -96 337 -96 353 0 24 193 98 341 130 148 33 394 39 558 15z m4829 10 c380
-42 615 -298 673 -734 11 -88 8 -311 -6 -347 -7 -17 -46 -18 -574 -20 l-566
-3 3 -34 c4 -47 48 -125 95 -168 51 -45 145 -89 233 -108 136 -29 381 -14 574
34 49 12 77 15 81 9 4 -6 12 -45 19 -87 7 -42 21 -118 31 -170 11 -51 19 -99
19 -106 0 -14 -169 -65 -300 -91 -128 -24 -440 -30 -556 -10 -325 56 -555 226
-660 486 -57 140 -68 202 -68 400 -1 173 1 192 27 285 106 382 376 626 732
664 116 12 135 12 243 0z m4647 -14 c38 -8 107 -34 154 -57 111 -54 247 -186
303 -293 100 -193 138 -423 112 -674 l-7 -61 -570 0 -570 0 7 -47 c17 -126
144 -230 328 -269 108 -24 346 -14 498 19 63 14 122 29 132 32 11 4 18 0 22
-12 11 -34 54 -258 61 -314 l7 -56 -69 -21 c-183 -56 -287 -73 -499 -79 -214
-7 -303 4 -454 53 -132 42 -214 90 -309 179 -174 164 -261 385 -261 665 0 448
251 816 630 924 128 36 340 41 485 11z m1948 19 l37 -7 0 -263 0 -264 -27 7
c-16 5 -73 8 -128 7 -133 -1 -198 -25 -276 -104 -46 -46 -61 -70 -80 -126 -22
-67 -23 -80 -27 -571 l-4 -503 -272 0 -273 0 -7 853 c-3 468 -9 871 -12 895
l-6 42 243 -2 244 -3 7 -125 c13 -219 8 -206 48 -125 45 90 151 198 235 240
90 44 207 63 298 49z m9782 -19 c85 -18 213 -80 287 -140 112 -90 214 -262
258 -435 25 -96 37 -307 25 -433 l-7 -77 -569 0 -569 0 0 -28 c0 -53 57 -149
113 -191 73 -54 104 -68 204 -92 123 -30 354 -22 523 16 63 15 121 27 129 28
11 2 23 -38 47 -158 18 -88 33 -174 34 -192 0 -31 -2 -33 -67 -52 -229 -67
-366 -85 -603 -78 -197 5 -283 21 -429 81 -164 66 -312 206 -391 370 -75 153
-93 244 -93 451 0 150 3 181 26 267 63 238 195 431 375 549 117 77 219 111
402 133 58 7 232 -4 305 -19z m-5702 -557 c3 -472 6 -552 21 -610 19 -74 56
-132 111 -174 32 -24 48 -28 119 -32 69 -4 90 -1 134 18 61 26 114 82 148 154
l24 51 0 568 0 567 279 0 278 0 7 -837 c4 -461 8 -863 9 -893 l2 -55 -234 -3
c-129 -1 -238 1 -242 5 -5 5 -13 61 -20 126 -7 64 -15 117 -18 117 -4 0 -14
-13 -24 -29 -29 -49 -130 -135 -205 -174 -99 -52 -203 -77 -323 -77 -124 0
-184 13 -284 60 -99 46 -151 91 -208 178 -56 86 -85 155 -110 267 -19 84 -21
129 -24 703 l-4 612 280 0 279 0 5 -542z m2105 -350 l-3 -893 -275 0 -275 0
-3 893 -2 892 280 0 280 0 -2 -892z"/>
<path d="M26083 5306 c-132 -43 -211 -131 -259 -291 -29 -94 -27 -307 4 -400
62 -188 191 -284 367 -273 131 9 235 90 277 217 18 55 22 96 26 241 4 190 -5
266 -40 339 -29 60 -91 121 -152 149 -61 29 -164 37 -223 18z"/>
<path d="M2150 5981 l-45 -6 0 -280 0 -280 140 1 c156 1 236 14 310 51 105 51
160 136 159 243 -1 145 -90 238 -259 269 -61 11 -227 12 -305 2z"/>
<path d="M2102 4669 l3 -344 140 -3 c216 -4 333 23 419 100 66 58 98 125 104
218 5 89 -7 140 -48 203 -40 59 -104 101 -205 133 -69 23 -104 27 -248 31
l-167 6 2 -344z"/>
<path d="M9630 5982 l-45 -7 -3 -284 -2 -284 142 6 c79 3 170 11 203 17 167
33 267 139 266 283 0 84 -23 138 -78 186 -70 62 -143 83 -303 86 -74 2 -155 0
-180 -3z"/>
<path d="M9580 4664 l0 -346 183 5 c187 5 229 12 315 56 64 33 109 77 139 139
24 49 28 68 27 147 0 110 -22 163 -95 229 -88 79 -226 115 -441 116 l-128 0 0
-346z"/>
<path d="M4387 5353 c-107 -36 -195 -154 -221 -295 l-7 -38 322 0 322 0 -6 59
c-7 80 -50 172 -102 220 -73 67 -201 89 -308 54z"/>
<path d="M7140 4750 c-140 -15 -247 -65 -297 -141 -21 -33 -28 -56 -31 -109
-8 -134 69 -213 208 -213 114 -1 217 64 266 168 21 44 24 64 24 178 l0 127
-52 -1 c-29 -1 -82 -5 -118 -9z"/>
<path d="M11862 5351 c-57 -19 -118 -71 -156 -131 -29 -45 -66 -143 -66 -175
l0 -25 320 0 320 0 0 33 c0 88 -53 203 -117 257 -72 59 -199 76 -301 41z"/>
<path d="M16407 5353 c-107 -36 -195 -154 -221 -295 l-7 -38 322 0 322 0 -6
59 c-7 80 -50 172 -102 220 -73 67 -201 89 -308 54z"/>
<path d="M28126 5345 c-113 -46 -172 -129 -212 -297 l-6 -28 321 0 321 0 0 39
c0 21 -9 69 -21 106 -28 90 -99 166 -178 189 -79 23 -155 20 -225 -9z"/>
</g>
</svg>
